# Blender 4.1.1
# www.blender.org
mtllib Topor.mtl
o tOPR
v 0.000000 11.907540 -0.980785
v 0.000000 0.000000 -1.000000
v 0.000000 -0.195090 -0.980785
v 0.000000 -0.555570 -0.831470
v 0.191342 11.907540 -0.961940
v 0.195090 0.000000 -0.980785
v 0.191342 -0.195090 -0.961940
v 0.180240 -0.382683 -0.906127
v 0.162212 -0.555570 -0.815493
v 0.137950 -0.707107 -0.693520
v 0.108386 -0.831470 -0.544895
v 0.074658 -0.923880 -0.375330
v 0.038060 -0.980785 -0.191342
v 0.375330 11.907540 -0.906127
v 0.382683 0.000000 -0.923879
v 0.375330 -0.195090 -0.906127
v 0.353553 -0.382683 -0.853553
v 0.318190 -0.555570 -0.768178
v 0.270598 -0.707107 -0.653281
v 0.212608 -0.831470 -0.513280
v 0.146447 -0.923880 -0.353553
v 0.074658 -0.980785 -0.180240
v 0.544895 11.907540 -0.815493
v 0.555570 0.000000 -0.831469
v 0.544895 -0.195090 -0.815493
v 0.513280 -0.382683 -0.768178
v 0.461940 -0.555570 -0.691342
v 0.392847 -0.707107 -0.587938
v 0.308658 -0.831470 -0.461940
v 0.212608 -0.923880 -0.318190
v 0.108386 -0.980785 -0.162212
v 0.693520 11.907540 -0.693520
v 0.707107 0.000000 -0.707107
v 0.693520 -0.195090 -0.693520
v 0.653281 -0.382683 -0.653281
v 0.587938 -0.555570 -0.587938
v 0.500000 -0.707107 -0.500000
v 0.392847 -0.831470 -0.392847
v 0.270598 -0.923880 -0.270598
v 0.137950 -0.980785 -0.137950
v 0.815493 11.907540 -0.544895
v 0.831470 0.000000 -0.555570
v 0.815493 -0.195090 -0.544895
v 0.768178 -0.382683 -0.513280
v 0.691342 -0.555570 -0.461940
v 0.587938 -0.707107 -0.392847
v 0.461940 -0.831470 -0.308658
v 0.318190 -0.923880 -0.212608
v 0.162212 -0.980785 -0.108386
v 0.906127 11.907540 -0.375330
v 0.923879 0.000000 -0.382683
v 0.906127 -0.195090 -0.375330
v 0.853553 -0.382683 -0.353553
v 0.768178 -0.555570 -0.318190
v 0.653281 -0.707107 -0.270598
v 0.513280 -0.831470 -0.212607
v 0.353553 -0.923880 -0.146447
v 0.180240 -0.980785 -0.074658
v 0.961940 11.907540 -0.191342
v 0.980785 0.000000 -0.195090
v 0.961940 -0.195090 -0.191342
v 0.906127 -0.382683 -0.180240
v 0.815493 -0.555570 -0.162212
v 0.693520 -0.707107 -0.137950
v 0.544895 -0.831470 -0.108386
v 0.375330 -0.923880 -0.074658
v 0.191342 -0.980785 -0.038060
v 0.980785 11.907540 0.000000
v 1.000000 0.000000 0.000000
v 0.980785 -0.195090 0.000000
v 0.923879 -0.382683 -0.000000
v 0.831469 -0.555570 0.000000
v 0.707107 -0.707107 -0.000000
v 0.555570 -0.831470 0.000000
v 0.382683 -0.923880 0.000000
v 0.195090 -0.980785 0.000000
v 0.961940 11.907540 0.191342
v 0.980785 0.000000 0.195090
v 0.961940 -0.195090 0.191342
v 0.906127 -0.382683 0.180240
v 0.815493 -0.555570 0.162212
v 0.693520 -0.707107 0.137950
v 0.544895 -0.831470 0.108386
v 0.375330 -0.923880 0.074658
v 0.191342 -0.980785 0.038060
v 0.906127 11.907540 0.375330
v 0.923879 0.000000 0.382683
v 0.906127 -0.195090 0.375330
v 0.853553 -0.382683 0.353553
v 0.768178 -0.555570 0.318190
v 0.653281 -0.707107 0.270598
v 0.513280 -0.831470 0.212608
v 0.353553 -0.923880 0.146447
v 0.180240 -0.980785 0.074658
v 0.815493 11.907540 0.544895
v 0.831469 0.000000 0.555570
v 0.815493 -0.195090 0.544895
v 0.768178 -0.382683 0.513280
v 0.691341 -0.555570 0.461940
v 0.587938 -0.707107 0.392847
v 0.461940 -0.831470 0.308658
v 0.318190 -0.923880 0.212608
v 0.162212 -0.980785 0.108386
v 0.693520 11.907540 0.693520
v 0.707106 0.000000 0.707107
v 0.693520 -0.195090 0.693520
v 0.653281 -0.382683 0.653281
v 0.587938 -0.555570 0.587938
v 0.500000 -0.707107 0.500000
v 0.392847 -0.831470 0.392847
v 0.270598 -0.923880 0.270598
v 0.137950 -0.980785 0.137950
v 0.544895 11.907540 0.815493
v 0.555570 0.000000 0.831469
v 0.544895 -0.195090 0.815493
v 0.513280 -0.382683 0.768178
v 0.461940 -0.555570 0.691342
v 0.392847 -0.707107 0.587938
v 0.308658 -0.831470 0.461940
v 0.212607 -0.923880 0.318190
v 0.108386 -0.980785 0.162212
v 0.375330 11.907540 0.906127
v 0.382683 0.000000 0.923879
v 0.375330 -0.195090 0.906127
v 0.353553 -0.382683 0.853553
v 0.318189 -0.555570 0.768178
v 0.270598 -0.707107 0.653281
v 0.212607 -0.831470 0.513280
v 0.146447 -0.923880 0.353553
v 0.074658 -0.980785 0.180240
v 0.191342 11.907540 0.961939
v 0.195090 0.000000 0.980785
v 0.191342 -0.195090 0.961939
v 0.180240 -0.382683 0.906127
v 0.162212 -0.555570 0.815493
v 0.137950 -0.707107 0.693520
v 0.108386 -0.831470 0.544895
v 0.074658 -0.923880 0.375330
v 0.038060 -0.980785 0.191342
v -0.000000 11.907540 0.980785
v -0.000000 0.000000 0.999999
v -0.000000 -0.195090 0.980785
v 0.000000 -0.382683 0.923879
v -0.000000 -0.555570 0.831469
v -0.000000 -0.707107 0.707107
v -0.000000 -0.831470 0.555570
v -0.000000 -0.923880 0.382683
v -0.000000 -0.980785 0.195090
v -0.191342 11.907540 0.961939
v -0.195091 0.000000 0.980785
v -0.191342 -0.195090 0.961939
v -0.180240 -0.382683 0.906127
v -0.162212 -0.555570 0.815493
v -0.137950 -0.707107 0.693520
v -0.108386 -0.831470 0.544895
v -0.074658 -0.923880 0.375330
v -0.038060 -0.980785 0.191342
v -0.375330 11.907540 0.906127
v -0.382683 0.000000 0.923879
v -0.375330 -0.195090 0.906127
v -0.353553 -0.382683 0.853553
v -0.318190 -0.555570 0.768177
v -0.270598 -0.707107 0.653281
v -0.212608 -0.831470 0.513280
v -0.146447 -0.923880 0.353553
v -0.074658 -0.980785 0.180240
v -0.544895 11.907540 0.815493
v -0.555570 0.000000 0.831469
v -0.544895 -0.195090 0.815493
v -0.513280 -0.382683 0.768178
v -0.461940 -0.555570 0.691341
v -0.392847 -0.707107 0.587938
v -0.308658 -0.831470 0.461939
v -0.212608 -0.923880 0.318190
v -0.108386 -0.980785 0.162212
v -0.693520 11.907540 0.693520
v -0.707106 0.000000 0.707106
v -0.693520 -0.195090 0.693520
v -0.653281 -0.382683 0.653281
v -0.587938 -0.555570 0.587937
v -0.500000 -0.707107 0.500000
v -0.392847 -0.831470 0.392847
v -0.270598 -0.923880 0.270598
v -0.137950 -0.980785 0.137950
v 0.000000 -1.000000 0.000000
v -0.815493 11.907540 0.544895
v -0.831469 0.000000 0.555569
v -0.815493 -0.195090 0.544895
v -0.768177 -0.382683 0.513280
v -0.691341 -0.555570 0.461939
v -0.587938 -0.707107 0.392847
v -0.461940 -0.831470 0.308658
v -0.318190 -0.923880 0.212607
v -0.162212 -0.980785 0.108386
v -0.906127 11.907540 0.375330
v -0.923879 0.000000 0.382683
v -0.906127 -0.195090 0.375330
v -0.853553 -0.382683 0.353553
v -0.768177 -0.555570 0.318189
v -0.653281 -0.707107 0.270598
v -0.513280 -0.831470 0.212607
v -0.353553 -0.923880 0.146447
v -0.180240 -0.980785 0.074658
v -0.961939 11.907540 0.191341
v -0.980784 0.000000 0.195090
v -0.961939 -0.195090 0.191341
v -0.906127 -0.382683 0.180240
v -0.815493 -0.555570 0.162211
v -0.693520 -0.707107 0.137950
v -0.544895 -0.831470 0.108386
v -0.375330 -0.923880 0.074658
v -0.191342 -0.980785 0.038060
v -0.980785 11.907540 -0.000000
v -0.999999 0.000000 -0.000000
v -0.980785 -0.195090 -0.000000
v -0.923879 -0.382683 -0.000000
v -0.831469 -0.555570 -0.000000
v -0.707107 -0.707107 -0.000000
v -0.555570 -0.831470 -0.000000
v -0.382683 -0.923880 -0.000000
v -0.195090 -0.980785 -0.000000
v -0.961939 11.907540 -0.191342
v -0.980784 0.000000 -0.195091
v -0.961939 -0.195090 -0.191342
v -0.906127 -0.382683 -0.180240
v -0.815493 -0.555570 -0.162212
v -0.693520 -0.707107 -0.137950
v -0.544895 -0.831470 -0.108386
v -0.375330 -0.923880 -0.074658
v -0.191342 -0.980785 -0.038060
v -0.906127 11.907540 -0.375330
v -0.923878 0.000000 -0.382683
v -0.906127 -0.195090 -0.375330
v -0.853553 -0.382683 -0.353553
v -0.768177 -0.555570 -0.318190
v -0.653281 -0.707107 -0.270598
v -0.513279 -0.831470 -0.212607
v -0.353553 -0.923880 -0.146447
v -0.180240 -0.980785 -0.074658
v -0.815493 11.907540 -0.544895
v -0.831468 0.000000 -0.555570
v -0.815493 -0.195090 -0.544895
v -0.768177 -0.382683 -0.513280
v -0.691341 -0.555570 -0.461940
v -0.587938 -0.707107 -0.392847
v -0.461939 -0.831470 -0.308658
v -0.318189 -0.923880 -0.212607
v -0.162212 -0.980785 -0.108386
v -0.693519 11.907540 -0.693520
v -0.707106 0.000000 -0.707106
v -0.693519 -0.195090 -0.693520
v -0.653281 -0.382683 -0.653281
v -0.587937 -0.555570 -0.587938
v -0.500000 -0.707107 -0.500000
v -0.392847 -0.831470 -0.392847
v -0.270598 -0.923880 -0.270598
v -0.137950 -0.980785 -0.137950
v -0.544895 11.907540 -0.815493
v -0.555569 0.000000 -0.831469
v -0.544895 -0.195090 -0.815493
v -0.513280 -0.382683 -0.768177
v -0.461939 -0.555570 -0.691341
v -0.392847 -0.707107 -0.587938
v -0.308658 -0.831470 -0.461939
v -0.212607 -0.923880 -0.318190
v -0.108386 -0.980785 -0.162212
v -4.748093 18.422794 -0.885389
v -4.799867 18.422794 -0.882749
v -0.375330 11.907540 -0.906127
v -0.382683 0.000000 -0.923879
v -0.375330 -0.195090 -0.906127
v -0.353553 -0.382683 -0.853553
v -0.318189 -0.555570 -0.768177
v -0.270598 -0.707107 -0.653281
v -0.212607 -0.831470 -0.513279
v -0.146446 -0.923880 -0.353553
v -0.074658 -0.980785 -0.180240
v -4.831749 18.422794 -0.879885
v -4.842514 18.422794 -0.876906
v -4.831749 18.422794 -0.873927
v -4.799867 18.422794 -0.871062
v -4.748093 8.841362 -0.885389
v -4.799867 8.841362 -0.882749
v -0.191341 11.907540 -0.961939
v -0.195090 0.000000 -0.980784
v -0.191341 -0.195090 -0.961939
v -0.180240 -0.382683 -0.906127
v -0.162211 -0.555570 -0.815493
v -0.137950 -0.707107 -0.693520
v -0.108386 -0.831470 -0.544895
v -0.074658 -0.923880 -0.375330
v -0.038060 -0.980785 -0.191342
v -4.831749 8.841362 -0.879885
v -4.842514 8.841362 -0.876906
v -4.831749 8.841362 -0.873927
v -4.799867 8.841362 -0.871062
v 0.000000 -0.382683 -0.923879
v 0.000000 -0.707107 -0.707107
v 0.000000 -0.831470 -0.555570
v 0.000000 -0.923880 -0.382683
v 0.000000 -0.980785 -0.195090
v -0.000000 15.992985 -0.555570
v -0.000000 15.717086 -0.831469
v -0.000000 15.356606 -0.980785
v 0.038060 16.142300 -0.191342
v 0.074658 16.085396 -0.375330
v 0.108386 15.992985 -0.544895
v 0.137949 15.868622 -0.693520
v 0.162211 15.717086 -0.815493
v 0.180240 15.544199 -0.906127
v 0.191341 15.356606 -0.961940
v 0.074658 16.142300 -0.180240
v 0.146446 16.085396 -0.353553
v 0.212607 15.992985 -0.513280
v 0.270598 15.868622 -0.653281
v 0.318189 15.717086 -0.768178
v 0.353553 15.544199 -0.853553
v 0.375330 15.356606 -0.906127
v 0.108386 16.142300 -0.162212
v 0.212607 16.085396 -0.318190
v 0.308658 15.992985 -0.461940
v 0.392847 15.868622 -0.587938
v 0.461939 15.717086 -0.691341
v 0.513280 15.544199 -0.768178
v 0.544895 15.356606 -0.815493
v 0.137949 16.142300 -0.137950
v 0.270598 16.085396 -0.270598
v 0.392847 15.992985 -0.392847
v 0.500000 15.868622 -0.500000
v 0.587937 15.717086 -0.587938
v 0.653281 15.544199 -0.653281
v 0.693520 15.356606 -0.693520
v 0.162211 16.142300 -0.108386
v 0.318189 16.085396 -0.212607
v 0.461939 15.992985 -0.308658
v 0.587938 15.868622 -0.392847
v 0.691341 15.717086 -0.461940
v 0.768177 15.544199 -0.513280
v 0.815493 15.356606 -0.544895
v -0.000000 16.161514 0.000000
v 0.180240 16.142300 -0.074658
v 0.353553 16.085396 -0.146446
v 0.513280 15.992985 -0.212607
v 0.653281 15.868622 -0.270598
v 0.768177 15.717086 -0.318189
v 0.853553 15.544199 -0.353553
v 0.906127 15.356606 -0.375330
v 0.191341 16.142300 -0.038060
v 0.375330 16.085396 -0.074658
v 0.544895 15.992985 -0.108386
v 0.693520 15.868622 -0.137950
v 0.815493 15.717086 -0.162211
v 0.906127 15.544199 -0.180240
v 0.961939 15.356606 -0.191342
v 0.195090 16.142300 0.000000
v 0.382683 16.085396 0.000000
v 0.555570 15.992985 0.000000
v 0.707106 15.868622 0.000000
v 0.831469 15.717086 0.000000
v 0.923879 15.544199 0.000000
v 0.980785 15.356606 0.000000
v 0.191341 16.142300 0.038060
v 0.375330 16.085396 0.074658
v 0.544895 15.992985 0.108387
v 0.693520 15.868622 0.137950
v 0.815493 15.717086 0.162212
v 0.906127 15.544199 0.180240
v 0.961939 15.356606 0.191342
v 0.180240 16.142300 0.074658
v 0.353553 16.085396 0.146447
v 0.513280 15.992985 0.212608
v 0.653281 15.868622 0.270598
v 0.768177 15.717086 0.318190
v 0.853553 15.544199 0.353553
v 0.906127 15.356606 0.375330
v 0.162211 16.142300 0.108386
v 0.318189 16.085396 0.212608
v 0.461939 15.992985 0.308658
v 0.587937 15.868622 0.392848
v 0.691341 15.717086 0.461940
v 0.768177 15.544199 0.513280
v 0.815493 15.356606 0.544895
v 0.137949 16.142300 0.137950
v 0.270598 16.085396 0.270598
v 0.392847 15.992985 0.392848
v 0.500000 15.868622 0.500000
v 0.587937 15.717086 0.587938
v 0.653281 15.544199 0.653281
v 0.693519 15.356606 0.693520
v 0.108386 16.142300 0.162212
v 0.212607 16.085396 0.318190
v 0.308658 15.992985 0.461940
v 0.392847 15.868622 0.587938
v 0.461939 15.717086 0.691342
v 0.513280 15.544199 0.768178
v 0.544895 15.356606 0.815493
v 0.074658 16.142300 0.180240
v 0.146446 16.085396 0.353553
v 0.212607 15.992985 0.513280
v 0.270598 15.868622 0.653282
v 0.318189 15.717086 0.768178
v 0.353553 15.544199 0.853553
v 0.375330 15.356606 0.906127
v 0.038060 16.142300 0.191342
v 0.074658 16.085396 0.375330
v 0.108386 15.992985 0.544895
v 0.137949 15.868622 0.693520
v 0.162211 15.717086 0.815493
v 0.180240 15.544199 0.906127
v 0.191341 15.356606 0.961940
v -0.000000 16.142300 0.195090
v -0.000000 16.085396 0.382683
v -0.000000 15.992985 0.555570
v -0.000000 15.868622 0.707107
v -0.000000 15.717086 0.831469
v -0.000000 15.544199 0.923879
v -0.000000 15.356606 0.980785
v -0.038060 16.142300 0.191342
v -0.074658 16.085396 0.375330
v -0.108387 15.992985 0.544895
v -0.137950 15.868622 0.693520
v -0.162212 15.717086 0.815493
v -0.180240 15.544199 0.906127
v -0.191342 15.356606 0.961940
v -0.074658 16.142300 0.180240
v -0.146447 16.085396 0.353553
v -0.212608 15.992985 0.513280
v -0.270598 15.868622 0.653281
v -0.318190 15.717086 0.768178
v -0.353553 15.544199 0.853553
v -0.375331 15.356606 0.906127
v -0.108387 16.142300 0.162212
v -0.212608 16.085396 0.318190
v -0.308658 15.992985 0.461939
v -0.392848 15.868622 0.587938
v -0.461940 15.717086 0.691341
v -0.513280 15.544199 0.768178
v -0.544895 15.356606 0.815493
v -0.137950 16.142300 0.137950
v -0.270598 16.085396 0.270598
v -0.392848 15.992985 0.392847
v -0.500000 15.868622 0.500000
v -0.587938 15.717086 0.587938
v -0.653281 15.544199 0.653281
v -0.693520 15.356606 0.693520
v -0.162212 16.142300 0.108386
v -0.318190 16.085396 0.212608
v -0.461940 15.992985 0.308658
v -0.587938 15.868622 0.392847
v -0.691342 15.717086 0.461940
v -0.768178 15.544199 0.513280
v -0.815493 15.356606 0.544895
v -0.180240 16.142300 0.074658
v -0.353554 16.085396 0.146447
v -0.513280 15.992985 0.212607
v -0.653282 15.868622 0.270598
v -0.768178 15.717086 0.318189
v -0.853553 15.544199 0.353553
v -0.906127 15.356606 0.375330
v -0.191342 16.142300 0.038060
v -0.375330 16.085396 0.074658
v -0.544895 15.992985 0.108386
v -0.693520 15.868622 0.137950
v -0.815493 15.717086 0.162212
v -0.906127 15.544199 0.180240
v -0.961940 15.356606 0.191341
v -0.195090 16.142300 0.000000
v -0.382683 16.085396 0.000000
v -0.555570 15.992985 -0.000000
v -0.707107 15.868622 0.000000
v -0.831469 15.717086 -0.000000
v -0.923879 15.544199 0.000000
v -0.980785 15.356606 -0.000000
v -0.191342 16.142300 -0.038060
v -0.375330 16.085396 -0.074658
v -0.544895 15.992985 -0.108386
v -0.693520 15.868622 -0.137950
v -0.815493 15.717086 -0.162212
v -0.906127 15.544199 -0.180240
v -0.961939 15.356606 -0.191342
v -0.180240 16.142300 -0.074658
v -0.353553 16.085396 -0.146446
v -0.513280 15.992985 -0.212607
v -0.653282 15.868622 -0.270598
v -0.768177 15.717086 -0.318190
v -0.853553 15.544199 -0.353553
v -0.906127 15.356606 -0.375330
v -0.162212 16.142300 -0.108386
v -0.318190 16.085396 -0.212607
v -0.461939 15.992985 -0.308658
v -0.587938 15.868622 -0.392847
v -0.691341 15.717086 -0.461940
v -0.768178 15.544199 -0.513280
v -0.815493 15.356606 -0.544895
v -0.137950 16.142300 -0.137949
v -0.270598 16.085396 -0.270598
v -0.392847 15.992985 -0.392847
v -0.500000 15.868622 -0.500000
v -0.587937 15.717086 -0.587937
v -0.653281 15.544199 -0.653281
v -0.693520 15.356606 -0.693520
v -0.108386 16.142300 -0.162211
v -0.212608 16.085396 -0.318189
v -0.308658 15.992985 -0.461939
v -0.392848 15.868622 -0.587938
v -0.461940 15.717086 -0.691341
v -0.513280 15.544199 -0.768177
v -0.544895 15.356606 -0.815493
v -0.074658 16.142300 -0.180240
v -0.146447 16.085396 -0.353553
v -0.212607 15.992985 -0.513279
v -0.270598 15.868622 -0.653281
v -0.318189 15.717086 -0.768177
v -0.353553 15.544199 -0.853553
v -0.375330 15.356606 -0.906127
v -0.038060 16.142300 -0.191341
v -0.074658 16.085396 -0.375330
v -0.108386 15.992985 -0.544894
v -0.137950 15.868622 -0.693520
v -0.162212 15.717086 -0.815492
v -0.180240 15.544199 -0.906127
v -0.191342 15.356606 -0.961939
v -0.000000 16.142300 -0.195090
v -0.000000 16.085396 -0.382683
v -0.000000 15.868622 -0.707106
v -0.000000 15.544199 -0.923879
v -4.773979 18.422794 -0.884069
v -4.815807 18.422794 -0.881317
v -4.837132 18.422794 -0.878395
v -4.837132 18.422794 -0.875416
v -4.815807 18.422794 -0.872494
v -5.817897 13.632078 -0.871062
v -5.849779 13.632078 -0.873927
v -5.766124 13.632078 -0.885389
v -5.860545 13.632078 -0.876906
v -5.849779 13.632078 -0.879885
v -5.817897 13.632078 -0.882749
v -4.773979 8.841362 -0.884069
v -4.815807 8.841362 -0.881317
v -4.837132 8.841362 -0.878395
v -4.837132 8.841362 -0.875416
v -4.815807 8.841362 -0.872494
v -5.833838 13.632078 -0.881317
v -5.792010 13.632078 -0.884069
v -5.855162 13.632078 -0.875416
v -5.855162 13.632078 -0.878395
v -5.833838 13.632078 -0.872494
vn 0.0975 -0.0975 -0.9904
vn 0.0938 -0.2890 -0.9527
vn 0.0865 -0.4696 -0.8786
vn 0.0759 -0.6326 -0.7708
vn 0.0624 -0.7715 -0.6332
vn 0.0464 -0.8810 -0.4709
vn 0.0286 -0.9565 -0.2902
vn 0.0980 0.0016 -0.9952
vn 0.0097 -0.9951 -0.0980
vn 0.0846 -0.9565 -0.2790
vn 0.2903 0.0016 -0.9569
vn 0.0286 -0.9951 -0.0942
vn 0.2889 -0.0976 -0.9524
vn 0.2779 -0.2890 -0.9161
vn 0.2563 -0.4696 -0.8448
vn 0.2248 -0.6326 -0.7412
vn 0.1847 -0.7715 -0.6088
vn 0.1374 -0.8810 -0.4528
vn 0.3651 -0.6326 -0.6831
vn 0.2999 -0.7715 -0.5611
vn 0.2230 -0.8810 -0.4173
vn 0.1374 -0.9565 -0.2571
vn 0.4714 0.0016 -0.8819
vn 0.0464 -0.9951 -0.0869
vn 0.4691 -0.0975 -0.8777
vn 0.4513 -0.2890 -0.8443
vn 0.4162 -0.4696 -0.7786
vn 0.0625 -0.9951 -0.0761
vn 0.6314 -0.0975 -0.7693
vn 0.6073 -0.2890 -0.7400
vn 0.5601 -0.4696 -0.6825
vn 0.4913 -0.6326 -0.5987
vn 0.4036 -0.7715 -0.4918
vn 0.3002 -0.8810 -0.3658
vn 0.1850 -0.9565 -0.2254
vn 0.6344 0.0016 -0.7730
vn 0.4918 -0.7715 -0.4036
vn 0.3658 -0.8810 -0.3002
vn 0.2254 -0.9565 -0.1850
vn 0.7730 0.0016 -0.6344
vn 0.0761 -0.9951 -0.0625
vn 0.7693 -0.0975 -0.6314
vn 0.7400 -0.2890 -0.6073
vn 0.6825 -0.4696 -0.5601
vn 0.5987 -0.6326 -0.4913
vn 0.8777 -0.0975 -0.4691
vn 0.8443 -0.2890 -0.4513
vn 0.7786 -0.4696 -0.4162
vn 0.6831 -0.6326 -0.3651
vn 0.5611 -0.7715 -0.2999
vn 0.4173 -0.8810 -0.2230
vn 0.2571 -0.9565 -0.1374
vn 0.8819 0.0016 -0.4714
vn 0.0869 -0.9951 -0.0464
vn 0.6088 -0.7715 -0.1847
vn 0.4528 -0.8810 -0.1374
vn 0.2790 -0.9565 -0.0846
vn 0.9569 0.0016 -0.2903
vn 0.0942 -0.9951 -0.0286
vn 0.9524 -0.0975 -0.2889
vn 0.9161 -0.2890 -0.2779
vn 0.8448 -0.4696 -0.2563
vn 0.7412 -0.6326 -0.2248
vn 0.9527 -0.2890 -0.0938
vn 0.8786 -0.4696 -0.0865
vn 0.7708 -0.6326 -0.0759
vn 0.6332 -0.7715 -0.0624
vn 0.4709 -0.8810 -0.0464
vn 0.2902 -0.9565 -0.0286
vn 0.9952 0.0016 -0.0980
vn 0.0980 -0.9951 -0.0097
vn 0.9904 -0.0975 -0.0975
vn 0.4709 -0.8810 0.0464
vn 0.2902 -0.9565 0.0286
vn 0.9952 0.0016 0.0980
vn 0.0980 -0.9951 0.0097
vn 0.9904 -0.0975 0.0976
vn 0.9527 -0.2890 0.0938
vn 0.8786 -0.4696 0.0865
vn 0.7708 -0.6326 0.0759
vn 0.6332 -0.7715 0.0624
vn 0.9161 -0.2890 0.2779
vn 0.8448 -0.4696 0.2563
vn 0.7412 -0.6326 0.2248
vn 0.6088 -0.7715 0.1847
vn 0.4528 -0.8810 0.1374
vn 0.2790 -0.9565 0.0846
vn 0.9569 0.0016 0.2903
vn 0.0942 -0.9951 0.0286
vn 0.9524 -0.0975 0.2889
vn 0.4173 -0.8810 0.2230
vn 0.2571 -0.9565 0.1374
vn 0.8819 0.0016 0.4714
vn 0.0869 -0.9951 0.0464
vn 0.8777 -0.0975 0.4691
vn 0.8443 -0.2890 0.4513
vn 0.7786 -0.4696 0.4162
vn 0.6831 -0.6326 0.3651
vn 0.5611 -0.7715 0.2999
vn 0.6825 -0.4696 0.5601
vn 0.5987 -0.6326 0.4913
vn 0.4918 -0.7715 0.4036
vn 0.3658 -0.8810 0.3002
vn 0.2254 -0.9565 0.1850
vn 0.7730 0.0016 0.6344
vn 0.0761 -0.9951 0.0625
vn 0.7693 -0.0975 0.6314
vn 0.7400 -0.2890 0.6073
vn 0.1850 -0.9565 0.2254
vn 0.6344 0.0016 0.7730
vn 0.0625 -0.9951 0.0761
vn 0.6314 -0.0975 0.7693
vn 0.6073 -0.2890 0.7400
vn 0.5601 -0.4696 0.6825
vn 0.4913 -0.6326 0.5987
vn 0.4036 -0.7715 0.4918
vn 0.3002 -0.8810 0.3658
vn 0.3651 -0.6326 0.6831
vn 0.2999 -0.7715 0.5611
vn 0.2230 -0.8810 0.4173
vn 0.1374 -0.9565 0.2571
vn 0.4714 0.0016 0.8819
vn 0.0464 -0.9951 0.0869
vn 0.4691 -0.0975 0.8777
vn 0.4513 -0.2890 0.8443
vn 0.4162 -0.4696 0.7786
vn 0.2903 0.0016 0.9569
vn 0.0286 -0.9951 0.0942
vn 0.2889 -0.0975 0.9524
vn 0.2779 -0.2890 0.9161
vn 0.2563 -0.4696 0.8448
vn 0.2248 -0.6326 0.7412
vn 0.1847 -0.7715 0.6088
vn 0.1374 -0.8810 0.4528
vn 0.0846 -0.9565 0.2790
vn 0.0759 -0.6326 0.7708
vn 0.0624 -0.7715 0.6332
vn 0.0464 -0.8810 0.4709
vn 0.0286 -0.9565 0.2902
vn 0.0980 0.0016 0.9952
vn 0.0097 -0.9951 0.0980
vn 0.0975 -0.0975 0.9904
vn 0.0938 -0.2890 0.9527
vn 0.0865 -0.4696 0.8786
vn -0.0097 -0.9951 0.0980
vn -0.0976 -0.0975 0.9904
vn -0.0938 -0.2890 0.9527
vn -0.0865 -0.4696 0.8786
vn -0.0759 -0.6326 0.7708
vn -0.0624 -0.7715 0.6332
vn -0.0464 -0.8810 0.4709
vn -0.0286 -0.9565 0.2902
vn -0.0980 0.0016 0.9952
vn -0.1847 -0.7715 0.6088
vn -0.1374 -0.8810 0.4528
vn -0.0846 -0.9565 0.2790
vn -0.2903 0.0016 0.9569
vn -0.0286 -0.9951 0.0942
vn -0.2889 -0.0975 0.9524
vn -0.2779 -0.2890 0.9161
vn -0.2563 -0.4696 0.8448
vn -0.2248 -0.6326 0.7412
vn -0.4691 -0.0975 0.8777
vn -0.4513 -0.2890 0.8443
vn -0.4162 -0.4696 0.7786
vn -0.3651 -0.6326 0.6831
vn -0.2999 -0.7715 0.5611
vn -0.2230 -0.8810 0.4173
vn -0.1374 -0.9565 0.2571
vn -0.4714 0.0016 0.8819
vn -0.0464 -0.9951 0.0869
vn -0.4036 -0.7715 0.4918
vn -0.3002 -0.8810 0.3658
vn -0.1850 -0.9565 0.2254
vn -0.6344 0.0016 0.7730
vn -0.0625 -0.9951 0.0761
vn -0.6314 -0.0975 0.7693
vn -0.6073 -0.2890 0.7400
vn -0.5601 -0.4696 0.6825
vn -0.4913 -0.6326 0.5987
vn -0.7400 -0.2890 0.6073
vn -0.6825 -0.4696 0.5601
vn -0.5987 -0.6326 0.4913
vn -0.4918 -0.7715 0.4036
vn -0.3658 -0.8810 0.3002
vn -0.2254 -0.9565 0.1850
vn -0.7730 0.0016 0.6344
vn -0.0761 -0.9951 0.0625
vn -0.7693 -0.0975 0.6314
vn -0.4173 -0.8810 0.2230
vn -0.2571 -0.9565 0.1374
vn -0.8819 0.0016 0.4714
vn -0.0869 -0.9951 0.0464
vn -0.8777 -0.0975 0.4691
vn -0.8443 -0.2890 0.4513
vn -0.7786 -0.4696 0.4162
vn -0.6831 -0.6326 0.3651
vn -0.5611 -0.7715 0.2999
vn -0.8448 -0.4696 0.2563
vn -0.7412 -0.6326 0.2248
vn -0.6088 -0.7715 0.1847
vn -0.4528 -0.8810 0.1374
vn -0.2790 -0.9565 0.0846
vn -0.9569 0.0016 0.2903
vn -0.0942 -0.9951 0.0286
vn -0.9524 -0.0975 0.2889
vn -0.9161 -0.2890 0.2779
vn -0.2902 -0.9565 0.0286
vn -0.9952 0.0016 0.0980
vn -0.0980 -0.9951 0.0097
vn -0.9904 -0.0975 0.0975
vn -0.9527 -0.2890 0.0938
vn -0.8786 -0.4696 0.0865
vn -0.7708 -0.6326 0.0759
vn -0.6332 -0.7715 0.0624
vn -0.4709 -0.8810 0.0464
vn -0.8786 -0.4696 -0.0865
vn -0.7708 -0.6326 -0.0759
vn -0.6332 -0.7715 -0.0624
vn -0.4709 -0.8810 -0.0464
vn -0.2902 -0.9565 -0.0286
vn -0.9952 0.0016 -0.0980
vn -0.0980 -0.9951 -0.0097
vn -0.9904 -0.0975 -0.0976
vn -0.9527 -0.2890 -0.0938
vn -0.2790 -0.9565 -0.0846
vn -0.9569 0.0016 -0.2903
vn -0.0942 -0.9951 -0.0286
vn -0.9524 -0.0975 -0.2889
vn -0.9161 -0.2890 -0.2779
vn -0.8448 -0.4696 -0.2563
vn -0.7412 -0.6326 -0.2248
vn -0.6088 -0.7715 -0.1847
vn 0.6446 0.7021 -0.3025
vn -0.4528 -0.8810 -0.1374
vn 0.6446 -0.7021 -0.3025
vn 0.5714 0.7756 0.2682
vn -0.6831 -0.6326 -0.3651
vn 0.5258 0.7311 0.4348
vn -0.5611 -0.7715 -0.2999
vn 0.6072 -0.7892 0.0925
vn -0.4173 -0.8810 -0.2231
vn -0.2593 -0.0000 0.9658
vn -0.2571 -0.9565 -0.1374
vn -0.8819 0.0016 -0.4714
vn 0.0725 -0.0000 -0.9974
vn -0.0869 -0.9951 -0.0464
vn -0.8777 -0.0975 -0.4691
vn -0.0895 0.0190 0.9958
vn -0.8443 -0.2890 -0.4513
vn -0.2663 0.0566 -0.9622
vn -0.7786 -0.4696 -0.4162
vn -0.7730 0.0016 -0.6344
vn -0.2663 0.0566 0.9622
vn -0.0761 -0.9951 -0.0625
vn -0.7693 -0.0975 -0.6314
vn -0.0509 0.0108 -0.9986
vn -0.7400 -0.2890 -0.6073
vn -0.0895 0.0190 -0.9958
vn -0.6825 -0.4696 -0.5601
vn 0.6333 -0.7679 -0.0965
vn -0.5987 -0.6326 -0.4913
vn 0.2903 -0.0000 0.9569
vn -0.4918 -0.7715 -0.4036
vn -0.2903 -0.0000 -0.9569
vn -0.3658 -0.8810 -0.3002
vn 0.9569 -0.0000 -0.2903
vn -0.2254 -0.9565 -0.1850
vn -0.4913 -0.6326 -0.5987
vn 0.2903 -0.0000 -0.9569
vn -0.4036 -0.7715 -0.4918
vn 0.9569 -0.0000 0.2903
vn -0.3002 -0.8810 -0.3658
vn -0.0980 -0.0000 -0.9952
vn -0.1850 -0.9565 -0.2254
vn -0.6344 0.0016 -0.7730
vn -0.2903 -0.0000 0.9569
vn -0.0625 -0.9951 -0.0761
vn -0.6314 -0.0975 -0.7693
vn 0.6344 -0.0000 0.7730
vn -0.6073 -0.2890 -0.7400
vn -0.6344 -0.0000 -0.7730
vn -0.5601 -0.4696 -0.6825
vn -0.7730 -0.0000 0.6344
vn -0.0464 -0.9951 -0.0869
vn -0.4691 -0.0975 -0.8777
vn 0.9952 -0.0000 -0.0980
vn -0.4513 -0.2890 -0.8443
vn 0.7730 -0.0000 -0.6344
vn -0.4162 -0.4696 -0.7786
vn 0.0980 -0.0000 0.9952
vn -0.3651 -0.6326 -0.6831
vn 0.0980 -0.0000 -0.9952
vn -0.2999 -0.7715 -0.5611
vn 0.5714 -0.7756 0.2682
vn -0.2230 -0.8810 -0.4173
vn -0.4714 -0.0000 0.8819
vn -0.1374 -0.9565 -0.2571
vn -0.4714 0.0016 -0.8819
vn -0.4714 -0.0000 -0.8819
vn -0.1847 -0.7715 -0.6088
vn 0.5258 -0.7311 0.4348
vn -0.1374 -0.8810 -0.4528
vn 0.8819 -0.0000 -0.4714
vn -0.0846 -0.9565 -0.2790
vn -0.2903 0.0016 -0.9569
vn 0.8819 -0.0000 0.4714
vn -0.0286 -0.9951 -0.0942
vn -0.2889 -0.0975 -0.9524
vn 0.4714 -0.0000 -0.8819
vn -0.2779 -0.2890 -0.9161
vn 0.4714 -0.0000 0.8819
vn -0.2563 -0.4696 -0.8448
vn 0.6333 0.7679 -0.0965
vn -0.2248 -0.6326 -0.7412
vn -0.0980 -0.0000 0.9952
vn -0.8819 -0.0000 0.4714
vn -0.0938 -0.2890 -0.9527
vn 0.9952 -0.0000 0.0980
vn -0.0865 -0.4696 -0.8786
vn -0.7730 -0.0000 -0.6344
vn -0.0759 -0.6326 -0.7708
vn -0.6344 -0.0000 0.7730
vn -0.0624 -0.7715 -0.6332
vn 0.7730 -0.0000 0.6344
vn -0.0464 -0.8810 -0.4709
vn 0.6344 -0.0000 -0.7730
vn -0.0286 -0.9565 -0.2902
vn -0.0980 0.0016 -0.9952
vn 0.6072 0.7891 0.0925
vn -0.0097 -0.9951 -0.0980
vn -0.0976 -0.0975 -0.9904
vn 0.0286 0.9566 -0.2902
vn 0.0464 0.8810 -0.4709
vn 0.0624 0.7715 -0.6332
vn 0.0759 0.6326 -0.7708
vn 0.0865 0.4696 -0.8786
vn 0.0938 0.2890 -0.9527
vn 0.0096 0.9951 -0.0980
vn 0.0286 0.9951 -0.0942
vn 0.0846 0.9566 -0.2790
vn 0.1373 0.8810 -0.4528
vn 0.1847 0.7715 -0.6088
vn 0.2248 0.6326 -0.7412
vn 0.2563 0.4696 -0.8448
vn 0.2779 0.2890 -0.9161
vn 0.3651 0.6326 -0.6831
vn 0.4162 0.4696 -0.7786
vn 0.4513 0.2890 -0.8443
vn 0.0465 0.9951 -0.0869
vn 0.1374 0.9566 -0.2571
vn 0.2230 0.8810 -0.4173
vn 0.2999 0.7715 -0.5611
vn 0.0624 0.9951 -0.0761
vn 0.1850 0.9566 -0.2254
vn 0.3002 0.8810 -0.3658
vn 0.4036 0.7715 -0.4918
vn 0.4913 0.6326 -0.5987
vn 0.5601 0.4696 -0.6825
vn 0.6073 0.2890 -0.7400
vn 0.5987 0.6326 -0.4913
vn 0.6825 0.4696 -0.5601
vn 0.7400 0.2890 -0.6073
vn 0.0761 0.9951 -0.0625
vn 0.2254 0.9566 -0.1850
vn 0.3658 0.8810 -0.3002
vn 0.4918 0.7715 -0.4036
vn 0.2571 0.9566 -0.1374
vn 0.4173 0.8810 -0.2231
vn 0.5611 0.7715 -0.2999
vn 0.6831 0.6326 -0.3651
vn 0.7786 0.4696 -0.4162
vn 0.8443 0.2890 -0.4513
vn 0.0868 0.9951 -0.0464
vn 0.8448 0.4696 -0.2563
vn 0.9161 0.2890 -0.2779
vn 0.0943 0.9951 -0.0286
vn 0.2790 0.9566 -0.0846
vn 0.4528 0.8810 -0.1374
vn 0.6088 0.7715 -0.1847
vn 0.7412 0.6326 -0.2248
vn 0.2902 0.9566 -0.0286
vn 0.4709 0.8810 -0.0464
vn 0.6332 0.7715 -0.0624
vn 0.7708 0.6326 -0.0759
vn 0.8786 0.4696 -0.0865
vn 0.9527 0.2890 -0.0938
vn 0.0980 0.9951 -0.0097
vn 0.8786 0.4696 0.0865
vn 0.9527 0.2890 0.0938
vn 0.0980 0.9951 0.0097
vn 0.2902 0.9566 0.0286
vn 0.4709 0.8810 0.0464
vn 0.6332 0.7715 0.0624
vn 0.7708 0.6326 0.0759
vn 0.4528 0.8810 0.1374
vn 0.6088 0.7715 0.1847
vn 0.7412 0.6326 0.2248
vn 0.8448 0.4696 0.2563
vn 0.9161 0.2890 0.2779
vn 0.0942 0.9951 0.0286
vn 0.2790 0.9566 0.0846
vn 0.8443 0.2890 0.4513
vn 0.0868 0.9951 0.0464
vn 0.2571 0.9566 0.1374
vn 0.4173 0.8810 0.2231
vn 0.5611 0.7715 0.2999
vn 0.6831 0.6326 0.3651
vn 0.7786 0.4696 0.4162
vn 0.4918 0.7715 0.4036
vn 0.5987 0.6326 0.4913
vn 0.6825 0.4696 0.5601
vn 0.7400 0.2890 0.6073
vn 0.0762 0.9951 0.0625
vn 0.2254 0.9566 0.1850
vn 0.3658 0.8810 0.3002
vn 0.0624 0.9951 0.0761
vn 0.1850 0.9566 0.2254
vn 0.3002 0.8810 0.3658
vn 0.4036 0.7715 0.4918
vn 0.4913 0.6326 0.5987
vn 0.5601 0.4696 0.6825
vn 0.6073 0.2890 0.7400
vn 0.2999 0.7715 0.5611
vn 0.3651 0.6326 0.6831
vn 0.4162 0.4696 0.7786
vn 0.4513 0.2890 0.8443
vn 0.0465 0.9951 0.0869
vn 0.1374 0.9566 0.2571
vn 0.2230 0.8810 0.4173
vn 0.0286 0.9951 0.0942
vn 0.0846 0.9566 0.2790
vn 0.1373 0.8810 0.4528
vn 0.1847 0.7715 0.6088
vn 0.2248 0.6326 0.7412
vn 0.2563 0.4696 0.8448
vn 0.2779 0.2890 0.9161
vn 0.0759 0.6326 0.7708
vn 0.0865 0.4696 0.8786
vn 0.0938 0.2890 0.9527
vn 0.0097 0.9951 0.0980
vn 0.0286 0.9566 0.2902
vn 0.0464 0.8810 0.4709
vn 0.0624 0.7715 0.6332
vn -0.0097 0.9951 0.0980
vn -0.0286 0.9566 0.2902
vn -0.0464 0.8810 0.4709
vn -0.0624 0.7715 0.6332
vn -0.0759 0.6326 0.7708
vn -0.0865 0.4696 0.8786
vn -0.0938 0.2890 0.9527
vn -0.2248 0.6326 0.7412
vn -0.2563 0.4696 0.8448
vn -0.2779 0.2890 0.9161
vn -0.0286 0.9951 0.0942
vn -0.0846 0.9566 0.2790
vn -0.1373 0.8810 0.4528
vn -0.1847 0.7715 0.6088
vn -0.1374 0.9566 0.2571
vn -0.2230 0.8810 0.4173
vn -0.2999 0.7715 0.5611
vn -0.3651 0.6326 0.6831
vn -0.4162 0.4696 0.7786
vn -0.4513 0.2890 0.8443
vn -0.0465 0.9951 0.0869
vn -0.5601 0.4696 0.6825
vn -0.6073 0.2890 0.7400
vn -0.0624 0.9951 0.0761
vn -0.1850 0.9566 0.2254
vn -0.3002 0.8810 0.3658
vn -0.4036 0.7715 0.4918
vn -0.4913 0.6326 0.5987
vn -0.3658 0.8810 0.3002
vn -0.4918 0.7715 0.4036
vn -0.5987 0.6326 0.4913
vn -0.6825 0.4696 0.5601
vn -0.7400 0.2890 0.6073
vn -0.0762 0.9951 0.0625
vn -0.2254 0.9566 0.1850
vn -0.8443 0.2890 0.4513
vn -0.0869 0.9951 0.0464
vn -0.2571 0.9566 0.1374
vn -0.4173 0.8810 0.2231
vn -0.5611 0.7715 0.2999
vn -0.6831 0.6326 0.3651
vn -0.7786 0.4696 0.4162
vn -0.4528 0.8810 0.1374
vn -0.6088 0.7715 0.1847
vn -0.7412 0.6326 0.2248
vn -0.8448 0.4696 0.2563
vn -0.9161 0.2890 0.2779
vn -0.0942 0.9951 0.0286
vn -0.2790 0.9566 0.0846
vn -0.9527 0.2890 0.0938
vn -0.0980 0.9951 0.0097
vn -0.2902 0.9565 0.0286
vn -0.4709 0.8810 0.0464
vn -0.6332 0.7715 0.0624
vn -0.7708 0.6326 0.0759
vn -0.8786 0.4696 0.0865
vn -0.6332 0.7715 -0.0624
vn -0.7708 0.6326 -0.0759
vn -0.8786 0.4696 -0.0865
vn -0.9527 0.2890 -0.0938
vn -0.0980 0.9951 -0.0097
vn -0.2902 0.9566 -0.0286
vn -0.4709 0.8810 -0.0464
vn -0.0943 0.9951 -0.0286
vn -0.2790 0.9566 -0.0846
vn -0.4528 0.8810 -0.1374
vn -0.6088 0.7715 -0.1847
vn -0.7412 0.6326 -0.2248
vn -0.8448 0.4696 -0.2563
vn -0.9161 0.2890 -0.2779
vn -0.5611 0.7715 -0.2999
vn -0.6831 0.6326 -0.3651
vn -0.7786 0.4696 -0.4162
vn -0.8443 0.2890 -0.4513
vn -0.0868 0.9951 -0.0464
vn -0.2571 0.9566 -0.1374
vn -0.4173 0.8810 -0.2231
vn -0.0761 0.9951 -0.0625
vn -0.2254 0.9566 -0.1850
vn -0.3658 0.8810 -0.3002
vn -0.4918 0.7715 -0.4036
vn -0.5987 0.6326 -0.4913
vn -0.6825 0.4696 -0.5601
vn -0.7400 0.2890 -0.6073
vn -0.4913 0.6326 -0.5987
vn -0.5601 0.4696 -0.6825
vn -0.6073 0.2890 -0.7400
vn -0.0624 0.9951 -0.0761
vn -0.1850 0.9566 -0.2254
vn -0.3002 0.8810 -0.3658
vn -0.4036 0.7715 -0.4918
vn -0.1374 0.9566 -0.2571
vn -0.2230 0.8810 -0.4173
vn -0.2999 0.7715 -0.5611
vn -0.3651 0.6326 -0.6831
vn -0.4162 0.4696 -0.7786
vn -0.4513 0.2890 -0.8443
vn -0.0465 0.9951 -0.0869
vn -0.2563 0.4696 -0.8448
vn -0.2779 0.2890 -0.9161
vn -0.0286 0.9951 -0.0942
vn -0.0846 0.9566 -0.2790
vn -0.1374 0.8810 -0.4528
vn -0.1847 0.7715 -0.6088
vn -0.2248 0.6326 -0.7412
vn -0.0286 0.9566 -0.2902
vn -0.0464 0.8810 -0.4709
vn -0.0624 0.7715 -0.6332
vn -0.0759 0.6326 -0.7708
vn -0.0865 0.4696 -0.8786
vn -0.0938 0.2890 -0.9527
vn -0.0096 0.9951 -0.0980
vn -0.0895 -0.0190 -0.9958
vn -0.0509 -0.0108 -0.9986
vn -0.2663 -0.0566 0.9622
vn -0.2663 -0.0566 -0.9622
vn -0.0895 -0.0190 0.9958
vt 0.750000 0.437500
vt 0.750000 0.500000
vt 0.718750 0.500000
vt 0.718750 0.437500
vt 0.750000 0.375000
vt 0.718750 0.375000
vt 0.750000 0.312500
vt 0.718750 0.312500
vt 0.750000 0.250000
vt 0.718750 0.250000
vt 0.750000 0.187500
vt 0.718750 0.187500
vt 0.750000 0.125000
vt 0.718750 0.125000
vt 0.750000 0.062500
vt 0.718750 0.062500
vt 0.750000 0.562500
vt 0.718750 0.562500
vt 0.734375 0.000000
vt 0.687500 0.125000
vt 0.687500 0.062500
vt 0.687500 0.562500
vt 0.687500 0.500000
vt 0.703125 0.000000
vt 0.687500 0.437500
vt 0.687500 0.375000
vt 0.687500 0.312500
vt 0.687500 0.250000
vt 0.687500 0.187500
vt 0.656250 0.312500
vt 0.656250 0.250000
vt 0.656250 0.187500
vt 0.656250 0.125000
vt 0.656250 0.062500
vt 0.656250 0.562500
vt 0.656250 0.500000
vt 0.671875 0.000000
vt 0.656250 0.437500
vt 0.656250 0.375000
vt 0.640625 0.000000
vt 0.625000 0.062500
vt 0.625000 0.500000
vt 0.625000 0.437500
vt 0.625000 0.375000
vt 0.625000 0.312500
vt 0.625000 0.250000
vt 0.625000 0.187500
vt 0.625000 0.125000
vt 0.625000 0.562500
vt 0.593750 0.250000
vt 0.593750 0.187500
vt 0.593750 0.125000
vt 0.593750 0.062500
vt 0.593750 0.562500
vt 0.593750 0.500000
vt 0.609375 0.000000
vt 0.593750 0.437500
vt 0.593750 0.375000
vt 0.593750 0.312500
vt 0.562500 0.500000
vt 0.562500 0.437500
vt 0.562500 0.375000
vt 0.562500 0.312500
vt 0.562500 0.250000
vt 0.562500 0.187500
vt 0.562500 0.125000
vt 0.562500 0.062500
vt 0.562500 0.562500
vt 0.578125 0.000000
vt 0.531250 0.250000
vt 0.531250 0.187500
vt 0.531250 0.125000
vt 0.531250 0.062500
vt 0.531250 0.562500
vt 0.531250 0.500000
vt 0.546875 0.000000
vt 0.531250 0.437500
vt 0.531250 0.375000
vt 0.531250 0.312500
vt 0.500000 0.437500
vt 0.500000 0.375000
vt 0.500000 0.312500
vt 0.500000 0.250000
vt 0.500000 0.187500
vt 0.500000 0.125000
vt 0.500000 0.062500
vt 0.500000 0.562500
vt 0.500000 0.500000
vt 0.515625 0.000000
vt 0.468750 0.187500
vt 0.468750 0.125000
vt 0.468750 0.062500
vt 0.468750 0.562500
vt 0.468750 0.500000
vt 0.484375 0.000000
vt 0.468750 0.437500
vt 0.468750 0.375000
vt 0.468750 0.312500
vt 0.468750 0.250000
vt 0.437500 0.437500
vt 0.437500 0.375000
vt 0.437500 0.312500
vt 0.437500 0.250000
vt 0.437500 0.187500
vt 0.437500 0.125000
vt 0.437500 0.062500
vt 0.437500 0.562500
vt 0.437500 0.500000
vt 0.453125 0.000000
vt 0.406250 0.187500
vt 0.406250 0.125000
vt 0.406250 0.062500
vt 0.406250 0.562500
vt 0.406250 0.500000
vt 0.421875 0.000000
vt 0.406250 0.437500
vt 0.406250 0.375000
vt 0.406250 0.312500
vt 0.406250 0.250000
vt 0.375000 0.375000
vt 0.375000 0.312500
vt 0.375000 0.250000
vt 0.375000 0.187500
vt 0.375000 0.125000
vt 0.375000 0.062500
vt 0.375000 0.562500
vt 0.375000 0.500000
vt 0.390625 0.000000
vt 0.375000 0.437500
vt 0.343750 0.125000
vt 0.343750 0.062500
vt 0.343750 0.562500
vt 0.343750 0.500000
vt 0.359375 0.000000
vt 0.343750 0.437500
vt 0.343750 0.375000
vt 0.343750 0.312500
vt 0.343750 0.250000
vt 0.343750 0.187500
vt 0.312500 0.312500
vt 0.312500 0.250000
vt 0.312500 0.187500
vt 0.312500 0.125000
vt 0.312500 0.062500
vt 0.312500 0.562500
vt 0.312500 0.500000
vt 0.328125 0.000000
vt 0.312500 0.437500
vt 0.312500 0.375000
vt 0.281250 0.562500
vt 0.281250 0.500000
vt 0.296875 0.000000
vt 0.281250 0.062500
vt 0.281250 0.437500
vt 0.281250 0.375000
vt 0.281250 0.312500
vt 0.281250 0.250000
vt 0.281250 0.187500
vt 0.281250 0.125000
vt 0.250000 0.312500
vt 0.250000 0.250000
vt 0.250000 0.187500
vt 0.250000 0.125000
vt 0.250000 0.062500
vt 0.250000 0.562500
vt 0.250000 0.500000
vt 0.265625 0.000000
vt 0.250000 0.437500
vt 0.250000 0.375000
vt 0.234375 0.000000
vt 0.218750 0.062500
vt 0.218750 0.500000
vt 0.218750 0.437500
vt 0.218750 0.375000
vt 0.218750 0.312500
vt 0.218750 0.250000
vt 0.218750 0.187500
vt 0.218750 0.125000
vt 0.218750 0.562500
vt 0.187500 0.250000
vt 0.187500 0.187500
vt 0.187500 0.125000
vt 0.187500 0.062500
vt 0.187500 0.562500
vt 0.187500 0.500000
vt 0.203125 0.000000
vt 0.187500 0.437500
vt 0.187500 0.375000
vt 0.187500 0.312500
vt 0.156250 0.500000
vt 0.156250 0.437500
vt 0.156250 0.375000
vt 0.156250 0.312500
vt 0.156250 0.250000
vt 0.156250 0.187500
vt 0.156250 0.125000
vt 0.156250 0.062500
vt 0.156250 0.562500
vt 0.171875 0.000000
vt 0.125000 0.250000
vt 0.125000 0.187500
vt 0.125000 0.125000
vt 0.125000 0.062500
vt 0.125000 0.562500
vt 0.125000 0.500000
vt 0.140625 0.000000
vt 0.125000 0.437500
vt 0.125000 0.375000
vt 0.125000 0.312500
vt 0.093750 0.437500
vt 0.093750 0.375000
vt 0.093750 0.312500
vt 0.093750 0.250000
vt 0.093750 0.187500
vt 0.093750 0.125000
vt 0.093750 0.062500
vt 0.093750 0.562500
vt 0.093750 0.500000
vt 0.109375 0.000000
vt 0.062500 0.187500
vt 0.062500 0.125000
vt 0.062500 0.062500
vt 0.062500 0.562500
vt 0.062500 0.500000
vt 0.078125 0.000000
vt 0.062500 0.437500
vt 0.062500 0.375000
vt 0.062500 0.312500
vt 0.062500 0.250000
vt 0.031250 0.375000
vt 0.031250 0.312500
vt 0.031250 0.250000
vt 0.031250 0.187500
vt 0.031250 0.125000
vt 0.031250 0.062500
vt 0.031250 0.562500
vt 0.031250 0.500000
vt 0.046875 0.000000
vt 0.031250 0.437500
vt 0.000000 0.125000
vt 0.000000 0.062500
vt 0.000000 0.562500
vt 0.000000 0.500000
vt 0.015625 0.000000
vt 0.000000 0.437500
vt 0.000000 0.375000
vt 0.000000 0.312500
vt 0.000000 0.250000
vt 0.000000 0.187500
vt 1.000000 0.312500
vt 1.000000 0.375000
vt 0.968750 0.375000
vt 0.968750 0.312500
vt 1.000000 0.250000
vt 0.968750 0.250000
vt 1.000000 0.187500
vt 0.968750 0.187500
vt 1.000000 0.125000
vt 0.968750 0.125000
vt 1.000000 0.062500
vt 0.968750 0.062500
vt 1.000000 0.500000
vt 1.000000 0.562500
vt 0.968750 0.562500
vt 0.968750 0.500000
vt 0.984375 0.000000
vt 1.000000 0.437500
vt 0.968750 0.437500
vt 0.937500 0.125000
vt 0.937500 0.062500
vt 0.937500 0.562500
vt 0.937500 0.500000
vt 0.953125 0.000000
vt 0.937500 0.437500
vt 0.937500 0.375000
vt 0.937500 0.312500
vt 0.937500 0.250000
vt 0.937500 0.187500
vt 0.046875 0.562500
vt 0.953125 0.562500
vt 0.906250 0.312500
vt 0.906250 0.250000
vt 0.906250 0.562500
vt 0.921875 0.562500
vt 0.906250 0.187500
vt 0.984375 0.562500
vt 0.906250 0.125000
vt 0.906250 0.062500
vt 0.906250 0.500000
vt 0.921875 0.000000
vt 0.906250 0.437500
vt 0.906250 0.375000
vt 0.875000 0.562500
vt 0.875000 0.500000
vt 0.015625 0.562500
vt 0.890625 0.000000
vt 0.875000 0.062500
vt 0.875000 0.437500
vt 0.875000 0.375000
vt 0.875000 0.312500
vt 0.875000 0.250000
vt 0.875000 0.187500
vt 0.781250 0.562500
vt 0.812500 0.562500
vt 0.875000 0.125000
vt 0.843750 0.312500
vt 0.843750 0.250000
vt 0.843750 0.187500
vt 0.843750 0.125000
vt 0.843750 0.062500
vt 0.843750 0.562500
vt 0.843750 0.500000
vt 0.859375 0.000000
vt 0.843750 0.437500
vt 0.843750 0.375000
vt 0.828125 0.000000
vt 0.812500 0.062500
vt 0.812500 0.500000
vt 0.812500 0.437500
vt 0.812500 0.375000
vt 0.812500 0.312500
vt 0.812500 0.250000
vt 0.812500 0.187500
vt 0.812500 0.125000
vt 0.781250 0.250000
vt 0.781250 0.187500
vt 0.781250 0.125000
vt 0.781250 0.062500
vt 0.781250 0.500000
vt 0.796875 0.000000
vt 0.781250 0.437500
vt 0.781250 0.375000
vt 0.781250 0.312500
vt 0.765625 0.000000
vt 0.750000 0.875000
vt 0.750000 0.937500
vt 0.718750 0.937500
vt 0.718750 0.875000
vt 0.750000 0.812500
vt 0.718750 0.812500
vt 0.750000 0.750000
vt 0.718750 0.750000
vt 0.750000 0.687500
vt 0.718750 0.687500
vt 0.750000 0.625000
vt 0.718750 0.625000
vt 0.734375 1.000000
vt 0.703125 1.000000
vt 0.687500 0.937500
vt 0.687500 0.875000
vt 0.687500 0.812500
vt 0.687500 0.750000
vt 0.687500 0.687500
vt 0.687500 0.625000
vt 0.656250 0.750000
vt 0.656250 0.687500
vt 0.656250 0.625000
vt 0.671875 1.000000
vt 0.656250 0.937500
vt 0.656250 0.875000
vt 0.656250 0.812500
vt 0.640625 1.000000
vt 0.625000 0.937500
vt 0.625000 0.875000
vt 0.625000 0.812500
vt 0.625000 0.750000
vt 0.625000 0.687500
vt 0.625000 0.625000
vt 0.593750 0.750000
vt 0.593750 0.687500
vt 0.593750 0.625000
vt 0.609375 1.000000
vt 0.593750 0.937500
vt 0.593750 0.875000
vt 0.593750 0.812500
vt 0.562500 0.937500
vt 0.562500 0.875000
vt 0.562500 0.812500
vt 0.562500 0.750000
vt 0.562500 0.687500
vt 0.562500 0.625000
vt 0.578125 1.000000
vt 0.531250 0.687500
vt 0.531250 0.625000
vt 0.546875 1.000000
vt 0.531250 0.937500
vt 0.531250 0.875000
vt 0.531250 0.812500
vt 0.531250 0.750000
vt 0.500000 0.937500
vt 0.500000 0.875000
vt 0.500000 0.812500
vt 0.500000 0.750000
vt 0.500000 0.687500
vt 0.500000 0.625000
vt 0.515625 1.000000
vt 0.468750 0.687500
vt 0.468750 0.625000
vt 0.484375 1.000000
vt 0.468750 0.937500
vt 0.468750 0.875000
vt 0.468750 0.812500
vt 0.468750 0.750000
vt 0.437500 0.875000
vt 0.437500 0.812500
vt 0.437500 0.750000
vt 0.437500 0.687500
vt 0.437500 0.625000
vt 0.453125 1.000000
vt 0.437500 0.937500
vt 0.406250 0.625000
vt 0.421875 1.000000
vt 0.406250 0.937500
vt 0.406250 0.875000
vt 0.406250 0.812500
vt 0.406250 0.750000
vt 0.406250 0.687500
vt 0.375000 0.812500
vt 0.375000 0.750000
vt 0.375000 0.687500
vt 0.375000 0.625000
vt 0.390625 1.000000
vt 0.375000 0.937500
vt 0.375000 0.875000
vt 0.359375 1.000000
vt 0.343750 0.937500
vt 0.343750 0.875000
vt 0.343750 0.812500
vt 0.343750 0.750000
vt 0.343750 0.687500
vt 0.343750 0.625000
vt 0.312500 0.812500
vt 0.312500 0.750000
vt 0.312500 0.687500
vt 0.312500 0.625000
vt 0.328125 1.000000
vt 0.312500 0.937500
vt 0.312500 0.875000
vt 0.296875 1.000000
vt 0.281250 0.937500
vt 0.281250 0.875000
vt 0.281250 0.812500
vt 0.281250 0.750000
vt 0.281250 0.687500
vt 0.281250 0.625000
vt 0.250000 0.750000
vt 0.250000 0.687500
vt 0.250000 0.625000
vt 0.265625 1.000000
vt 0.250000 0.937500
vt 0.250000 0.875000
vt 0.250000 0.812500
vt 0.234375 1.000000
vt 0.218750 0.937500
vt 0.218750 0.875000
vt 0.218750 0.812500
vt 0.218750 0.750000
vt 0.218750 0.687500
vt 0.218750 0.625000
vt 0.187500 0.750000
vt 0.187500 0.687500
vt 0.187500 0.625000
vt 0.203125 1.000000
vt 0.187500 0.937500
vt 0.187500 0.875000
vt 0.187500 0.812500
vt 0.156250 0.937500
vt 0.156250 0.875000
vt 0.156250 0.812500
vt 0.156250 0.750000
vt 0.156250 0.687500
vt 0.156250 0.625000
vt 0.171875 1.000000
vt 0.125000 0.687500
vt 0.125000 0.625000
vt 0.140625 1.000000
vt 0.125000 0.937500
vt 0.125000 0.875000
vt 0.125000 0.812500
vt 0.125000 0.750000
vt 0.093750 0.875000
vt 0.093750 0.812500
vt 0.093750 0.750000
vt 0.093750 0.687500
vt 0.093750 0.625000
vt 0.109375 1.000000
vt 0.093750 0.937500
vt 0.062500 0.625000
vt 0.078125 1.000000
vt 0.062500 0.937500
vt 0.062500 0.875000
vt 0.062500 0.812500
vt 0.062500 0.750000
vt 0.062500 0.687500
vt 0.031250 0.875000
vt 0.031250 0.812500
vt 0.031250 0.750000
vt 0.031250 0.687500
vt 0.031250 0.625000
vt 0.046875 1.000000
vt 0.031250 0.937500
vt 0.000000 0.625000
vt 0.015625 1.000000
vt 0.000000 0.937500
vt 0.000000 0.875000
vt 0.000000 0.812500
vt 0.000000 0.750000
vt 0.000000 0.687500
vt 1.000000 0.750000
vt 1.000000 0.812500
vt 0.968750 0.812500
vt 0.968750 0.750000
vt 1.000000 0.687500
vt 0.968750 0.687500
vt 1.000000 0.625000
vt 0.968750 0.625000
vt 1.000000 0.937500
vt 0.984375 1.000000
vt 0.968750 0.937500
vt 1.000000 0.875000
vt 0.968750 0.875000
vt 0.953125 1.000000
vt 0.937500 0.937500
vt 0.937500 0.875000
vt 0.937500 0.812500
vt 0.937500 0.750000
vt 0.937500 0.687500
vt 0.937500 0.625000
vt 0.906250 0.812500
vt 0.906250 0.750000
vt 0.906250 0.687500
vt 0.906250 0.625000
vt 0.921875 1.000000
vt 0.906250 0.937500
vt 0.906250 0.875000
vt 0.890625 1.000000
vt 0.875000 0.937500
vt 0.875000 0.875000
vt 0.875000 0.812500
vt 0.875000 0.750000
vt 0.875000 0.687500
vt 0.875000 0.625000
vt 0.843750 0.750000
vt 0.843750 0.687500
vt 0.843750 0.625000
vt 0.859375 1.000000
vt 0.843750 0.937500
vt 0.843750 0.875000
vt 0.843750 0.812500
vt 0.812500 0.937500
vt 0.812500 0.875000
vt 0.812500 0.812500
vt 0.812500 0.750000
vt 0.812500 0.687500
vt 0.812500 0.625000
vt 0.828125 1.000000
vt 0.781250 0.687500
vt 0.781250 0.625000
vt 0.796875 1.000000
vt 0.781250 0.937500
vt 0.781250 0.875000
vt 0.781250 0.812500
vt 0.781250 0.750000
vt 0.765625 1.000000
s 0
f 3/1/1 2/2/1 6/3/1 7/4/1
f 297/5/2 3/1/2 7/4/2 8/6/2
f 4/7/3 297/5/3 8/6/3 9/8/3
f 298/9/4 4/7/4 9/8/4 10/10/4
f 299/11/5 298/9/5 10/10/5 11/12/5
f 300/13/6 299/11/6 11/12/6 12/14/6
f 301/15/7 300/13/7 12/14/7 13/16/7
f 2/2/8 1/17/8 5/18/8 6/3/8
f 185/19/9 301/15/9 13/16/9
f 13/16/10 12/14/10 21/20/10 22/21/10
f 6/3/11 5/18/11 14/22/11 15/23/11
f 185/24/12 13/16/12 22/21/12
f 7/4/13 6/3/13 15/23/13 16/25/13
f 8/6/14 7/4/14 16/25/14 17/26/14
f 9/8/15 8/6/15 17/26/15 18/27/15
f 10/10/16 9/8/16 18/27/16 19/28/16
f 11/12/17 10/10/17 19/28/17 20/29/17
f 12/14/18 11/12/18 20/29/18 21/20/18
f 19/28/19 18/27/19 27/30/19 28/31/19
f 20/29/20 19/28/20 28/31/20 29/32/20
f 21/20/21 20/29/21 29/32/21 30/33/21
f 22/21/22 21/20/22 30/33/22 31/34/22
f 15/23/23 14/22/23 23/35/23 24/36/23
f 185/37/24 22/21/24 31/34/24
f 16/25/25 15/23/25 24/36/25 25/38/25
f 17/26/26 16/25/26 25/38/26 26/39/26
f 18/27/27 17/26/27 26/39/27 27/30/27
f 185/40/28 31/34/28 40/41/28
f 25/38/29 24/36/29 33/42/29 34/43/29
f 26/39/30 25/38/30 34/43/30 35/44/30
f 27/30/31 26/39/31 35/44/31 36/45/31
f 28/31/32 27/30/32 36/45/32 37/46/32
f 29/32/33 28/31/33 37/46/33 38/47/33
f 30/33/34 29/32/34 38/47/34 39/48/34
f 31/34/35 30/33/35 39/48/35 40/41/35
f 24/36/36 23/35/36 32/49/36 33/42/36
f 38/47/37 37/46/37 46/50/37 47/51/37
f 39/48/38 38/47/38 47/51/38 48/52/38
f 40/41/39 39/48/39 48/52/39 49/53/39
f 33/42/40 32/49/40 41/54/40 42/55/40
f 185/56/41 40/41/41 49/53/41
f 34/43/42 33/42/42 42/55/42 43/57/42
f 35/44/43 34/43/43 43/57/43 44/58/43
f 36/45/44 35/44/44 44/58/44 45/59/44
f 37/46/45 36/45/45 45/59/45 46/50/45
f 43/57/46 42/55/46 51/60/46 52/61/46
f 44/58/47 43/57/47 52/61/47 53/62/47
f 45/59/48 44/58/48 53/62/48 54/63/48
f 46/50/49 45/59/49 54/63/49 55/64/49
f 47/51/50 46/50/50 55/64/50 56/65/50
f 48/52/51 47/51/51 56/65/51 57/66/51
f 49/53/52 48/52/52 57/66/52 58/67/52
f 42/55/53 41/54/53 50/68/53 51/60/53
f 185/69/54 49/53/54 58/67/54
f 56/65/55 55/64/55 64/70/55 65/71/55
f 57/66/56 56/65/56 65/71/56 66/72/56
f 58/67/57 57/66/57 66/72/57 67/73/57
f 51/60/58 50/68/58 59/74/58 60/75/58
f 185/76/59 58/67/59 67/73/59
f 52/61/60 51/60/60 60/75/60 61/77/60
f 53/62/61 52/61/61 61/77/61 62/78/61
f 54/63/62 53/62/62 62/78/62 63/79/62
f 55/64/63 54/63/63 63/79/63 64/70/63
f 62/78/64 61/77/64 70/80/64 71/81/64
f 63/79/65 62/78/65 71/81/65 72/82/65
f 64/70/66 63/79/66 72/82/66 73/83/66
f 65/71/67 64/70/67 73/83/67 74/84/67
f 66/72/68 65/71/68 74/84/68 75/85/68
f 67/73/69 66/72/69 75/85/69 76/86/69
f 60/75/70 59/74/70 68/87/70 69/88/70
f 185/89/71 67/73/71 76/86/71
f 61/77/72 60/75/72 69/88/72 70/80/72
f 75/85/73 74/84/73 83/90/73 84/91/73
f 76/86/74 75/85/74 84/91/74 85/92/74
f 69/88/75 68/87/75 77/93/75 78/94/75
f 185/95/76 76/86/76 85/92/76
f 70/80/77 69/88/77 78/94/77 79/96/77
f 71/81/78 70/80/78 79/96/78 80/97/78
f 72/82/79 71/81/79 80/97/79 81/98/79
f 73/83/80 72/82/80 81/98/80 82/99/80
f 74/84/81 73/83/81 82/99/81 83/90/81
f 80/97/82 79/96/82 88/100/82 89/101/82
f 81/98/83 80/97/83 89/101/83 90/102/83
f 82/99/84 81/98/84 90/102/84 91/103/84
f 83/90/85 82/99/85 91/103/85 92/104/85
f 84/91/86 83/90/86 92/104/86 93/105/86
f 85/92/87 84/91/87 93/105/87 94/106/87
f 78/94/88 77/93/88 86/107/88 87/108/88
f 185/109/89 85/92/89 94/106/89
f 79/96/90 78/94/90 87/108/90 88/100/90
f 93/105/91 92/104/91 101/110/91 102/111/91
f 94/106/92 93/105/92 102/111/92 103/112/92
f 87/108/93 86/107/93 95/113/93 96/114/93
f 185/115/94 94/106/94 103/112/94
f 88/100/95 87/108/95 96/114/95 97/116/95
f 89/101/96 88/100/96 97/116/96 98/117/96
f 90/102/97 89/101/97 98/117/97 99/118/97
f 91/103/98 90/102/98 99/118/98 100/119/98
f 92/104/99 91/103/99 100/119/99 101/110/99
f 99/118/100 98/117/100 107/120/100 108/121/100
f 100/119/101 99/118/101 108/121/101 109/122/101
f 101/110/102 100/119/102 109/122/102 110/123/102
f 102/111/103 101/110/103 110/123/103 111/124/103
f 103/112/104 102/111/104 111/124/104 112/125/104
f 96/114/105 95/113/105 104/126/105 105/127/105
f 185/128/106 103/112/106 112/125/106
f 97/116/107 96/114/107 105/127/107 106/129/107
f 98/117/108 97/116/108 106/129/108 107/120/108
f 112/125/109 111/124/109 120/130/109 121/131/109
f 105/127/110 104/126/110 113/132/110 114/133/110
f 185/134/111 112/125/111 121/131/111
f 106/129/112 105/127/112 114/133/112 115/135/112
f 107/120/113 106/129/113 115/135/113 116/136/113
f 108/121/114 107/120/114 116/136/114 117/137/114
f 109/122/115 108/121/115 117/137/115 118/138/115
f 110/123/116 109/122/116 118/138/116 119/139/116
f 111/124/117 110/123/117 119/139/117 120/130/117
f 118/138/118 117/137/118 126/140/118 127/141/118
f 119/139/119 118/138/119 127/141/119 128/142/119
f 120/130/120 119/139/120 128/142/120 129/143/120
f 121/131/121 120/130/121 129/143/121 130/144/121
f 114/133/122 113/132/122 122/145/122 123/146/122
f 185/147/123 121/131/123 130/144/123
f 115/135/124 114/133/124 123/146/124 124/148/124
f 116/136/125 115/135/125 124/148/125 125/149/125
f 117/137/126 116/136/126 125/149/126 126/140/126
f 123/146/127 122/145/127 131/150/127 132/151/127
f 185/152/128 130/144/128 139/153/128
f 124/148/129 123/146/129 132/151/129 133/154/129
f 125/149/130 124/148/130 133/154/130 134/155/130
f 126/140/131 125/149/131 134/155/131 135/156/131
f 127/141/132 126/140/132 135/156/132 136/157/132
f 128/142/133 127/141/133 136/157/133 137/158/133
f 129/143/134 128/142/134 137/158/134 138/159/134
f 130/144/135 129/143/135 138/159/135 139/153/135
f 136/157/136 135/156/136 144/160/136 145/161/136
f 137/158/137 136/157/137 145/161/137 146/162/137
f 138/159/138 137/158/138 146/162/138 147/163/138
f 139/153/139 138/159/139 147/163/139 148/164/139
f 132/151/140 131/150/140 140/165/140 141/166/140
f 185/167/141 139/153/141 148/164/141
f 133/154/142 132/151/142 141/166/142 142/168/142
f 134/155/143 133/154/143 142/168/143 143/169/143
f 135/156/144 134/155/144 143/169/144 144/160/144
f 185/170/145 148/164/145 157/171/145
f 142/168/146 141/166/146 150/172/146 151/173/146
f 143/169/147 142/168/147 151/173/147 152/174/147
f 144/160/148 143/169/148 152/174/148 153/175/148
f 145/161/149 144/160/149 153/175/149 154/176/149
f 146/162/150 145/161/150 154/176/150 155/177/150
f 147/163/151 146/162/151 155/177/151 156/178/151
f 148/164/152 147/163/152 156/178/152 157/171/152
f 141/166/153 140/165/153 149/179/153 150/172/153
f 155/177/154 154/176/154 163/180/154 164/181/154
f 156/178/155 155/177/155 164/181/155 165/182/155
f 157/171/156 156/178/156 165/182/156 166/183/156
f 150/172/157 149/179/157 158/184/157 159/185/157
f 185/186/158 157/171/158 166/183/158
f 151/173/159 150/172/159 159/185/159 160/187/159
f 152/174/160 151/173/160 160/187/160 161/188/160
f 153/175/161 152/174/161 161/188/161 162/189/161
f 154/176/162 153/175/162 162/189/162 163/180/162
f 160/187/163 159/185/163 168/190/163 169/191/163
f 161/188/164 160/187/164 169/191/164 170/192/164
f 162/189/165 161/188/165 170/192/165 171/193/165
f 163/180/166 162/189/166 171/193/166 172/194/166
f 164/181/167 163/180/167 172/194/167 173/195/167
f 165/182/168 164/181/168 173/195/168 174/196/168
f 166/183/169 165/182/169 174/196/169 175/197/169
f 159/185/170 158/184/170 167/198/170 168/190/170
f 185/199/171 166/183/171 175/197/171
f 173/195/172 172/194/172 181/200/172 182/201/172
f 174/196/173 173/195/173 182/201/173 183/202/173
f 175/197/174 174/196/174 183/202/174 184/203/174
f 168/190/175 167/198/175 176/204/175 177/205/175
f 185/206/176 175/197/176 184/203/176
f 169/191/177 168/190/177 177/205/177 178/207/177
f 170/192/178 169/191/178 178/207/178 179/208/178
f 171/193/179 170/192/179 179/208/179 180/209/179
f 172/194/180 171/193/180 180/209/180 181/200/180
f 179/208/181 178/207/181 188/210/181 189/211/181
f 180/209/182 179/208/182 189/211/182 190/212/182
f 181/200/183 180/209/183 190/212/183 191/213/183
f 182/201/184 181/200/184 191/213/184 192/214/184
f 183/202/185 182/201/185 192/214/185 193/215/185
f 184/203/186 183/202/186 193/215/186 194/216/186
f 177/205/187 176/204/187 186/217/187 187/218/187
f 185/219/188 184/203/188 194/216/188
f 178/207/189 177/205/189 187/218/189 188/210/189
f 193/215/190 192/214/190 201/220/190 202/221/190
f 194/216/191 193/215/191 202/221/191 203/222/191
f 187/218/192 186/217/192 195/223/192 196/224/192
f 185/225/193 194/216/193 203/222/193
f 188/210/194 187/218/194 196/224/194 197/226/194
f 189/211/195 188/210/195 197/226/195 198/227/195
f 190/212/196 189/211/196 198/227/196 199/228/196
f 191/213/197 190/212/197 199/228/197 200/229/197
f 192/214/198 191/213/198 200/229/198 201/220/198
f 199/228/199 198/227/199 207/230/199 208/231/199
f 200/229/200 199/228/200 208/231/200 209/232/200
f 201/220/201 200/229/201 209/232/201 210/233/201
f 202/221/202 201/220/202 210/233/202 211/234/202
f 203/222/203 202/221/203 211/234/203 212/235/203
f 196/224/204 195/223/204 204/236/204 205/237/204
f 185/238/205 203/222/205 212/235/205
f 197/226/206 196/224/206 205/237/206 206/239/206
f 198/227/207 197/226/207 206/239/207 207/230/207
f 212/235/208 211/234/208 220/240/208 221/241/208
f 205/237/209 204/236/209 213/242/209 214/243/209
f 185/244/210 212/235/210 221/241/210
f 206/239/211 205/237/211 214/243/211 215/245/211
f 207/230/212 206/239/212 215/245/212 216/246/212
f 208/231/213 207/230/213 216/246/213 217/247/213
f 209/232/214 208/231/214 217/247/214 218/248/214
f 210/233/215 209/232/215 218/248/215 219/249/215
f 211/234/216 210/233/216 219/249/216 220/240/216
f 217/250/217 216/251/217 225/252/217 226/253/217
f 218/254/218 217/250/218 226/253/218 227/255/218
f 219/256/219 218/254/219 227/255/219 228/257/219
f 220/258/220 219/256/220 228/257/220 229/259/220
f 221/260/221 220/258/221 229/259/221 230/261/221
f 214/262/222 213/263/222 222/264/222 223/265/222
f 185/266/223 221/260/223 230/261/223
f 215/267/224 214/262/224 223/265/224 224/268/224
f 216/251/225 215/267/225 224/268/225 225/252/225
f 230/261/226 229/259/226 238/269/226 239/270/226
f 223/265/227 222/264/227 231/271/227 232/272/227
f 185/273/228 230/261/228 239/270/228
f 224/268/229 223/265/229 232/272/229 233/274/229
f 225/252/230 224/268/230 233/274/230 234/275/230
f 226/253/231 225/252/231 234/275/231 235/276/231
f 227/255/232 226/253/232 235/276/232 236/277/232
f 228/257/233 227/255/233 236/277/233 237/278/233
f 459/223/234 466/236/234 280/236/234 531/279/234 281/223/234
f 229/259/235 228/257/235 237/278/235 238/269/235
f 204/236/236 195/223/236 296/223/236 542/279/236 295/236/236
f 480/264/237 487/271/237 268/271/237 528/280/237 278/264/237
f 236/277/238 235/276/238 244/281/238 245/282/238
f 487/271/239 494/283/239 267/283/239 527/284/239 268/271/239
f 237/278/240 236/277/240 245/282/240 246/285/240
f 222/264/241 213/263/241 294/263/241 540/286/241 293/264/241
f 238/269/242 237/278/242 246/285/242 247/287/242
f 195/223/243 459/223/243 281/223/243 532/223/243 296/223/243
f 239/270/244 238/269/244 247/287/244 248/288/244
f 232/272/245 231/271/245 240/283/245 241/289/245
f 494/283/246 240/283/246 282/283/246 534/283/246 267/283/246
f 185/290/247 239/270/247 248/288/247
f 233/274/248 232/272/248 241/289/248 242/291/248
f 547/279/249 532/223/249 281/223/249 531/279/249
f 234/275/250 233/274/250 242/291/250 243/292/250
f 546/286/251 535/263/251 279/263/251 529/286/251
f 235/276/252 234/275/252 243/292/252 244/281/252
f 241/289/253 240/283/253 249/293/253 250/294/253
f 545/295/254 533/236/254 280/236/254 530/295/254
f 185/296/255 248/288/255 257/297/255
f 242/291/256 241/289/256 250/294/256 251/298/256
f 544/284/257 537/271/257 268/271/257 527/284/257
f 243/292/258 242/291/258 251/298/258 252/299/258
f 543/280/259 536/264/259 278/264/259 528/280/259
f 244/281/260 243/292/260 252/299/260 253/300/260
f 213/242/261 204/236/261 295/236/261 541/295/261 294/242/261
f 245/282/262 244/281/262 253/300/262 254/301/262
f 131/150/263 122/145/263 403/145/263 410/150/263
f 246/285/264 245/282/264 254/301/264 255/302/264
f 284/303/265 269/304/265 515/304/265 522/303/265
f 247/287/266 246/285/266 255/302/266 256/305/266
f 59/74/267 50/68/267 347/68/267 354/74/267
f 248/288/268 247/287/268 256/305/268 257/297/268
f 254/301/269 253/300/269 262/306/269 263/307/269
f 14/22/270 5/18/270 311/18/270 318/22/270
f 255/302/271 254/301/271 263/307/271 264/308/271
f 86/107/272 77/93/272 368/93/272 375/107/272
f 256/305/273 255/302/273 264/308/273 265/309/273
f 1/17/274 284/303/274 522/303/274 304/17/274
f 257/297/275 256/305/275 265/309/275 266/310/275
f 250/294/276 249/293/276 258/311/276 259/312/276
f 158/184/277 149/179/277 424/179/277 431/184/277
f 185/313/278 257/297/278 266/310/278
f 251/298/279 250/294/279 259/312/279 260/314/279
f 113/132/280 104/126/280 389/126/280 396/132/280
f 252/299/281 251/298/281 260/314/281 261/315/281
f 258/311/282 249/293/282 501/293/282 508/311/282
f 253/300/283 252/299/283 261/315/283 262/306/283
f 186/217/284 176/204/284 445/204/284 452/217/284
f 185/316/285 266/310/285 277/317/285
f 260/314/286 259/312/286 270/318/286 271/319/286
f 68/87/287 59/74/287 354/74/287 361/87/287
f 261/315/288 260/314/288 271/319/288 272/320/288
f 41/54/289 32/49/289 332/49/289 339/54/289
f 262/306/290 261/315/290 272/320/290 273/321/290
f 140/165/291 131/150/291 410/150/291 417/165/291
f 263/307/292 262/306/292 273/321/292 274/322/292
f 5/18/293 1/17/293 304/17/293 311/18/293
f 264/308/294 263/307/294 274/322/294 275/323/294
f 231/271/295 222/264/295 293/264/295 539/280/295 283/271/295
f 265/309/296 264/308/296 275/323/296 276/324/296
f 167/198/297 158/184/297 431/184/297 438/198/297
f 266/310/298 265/309/298 276/324/298 277/317/298
f 259/312/299 258/311/299 269/304/299 270/318/299
f 269/304/300 258/311/300 508/311/300 515/304/300
f 275/323/301 274/322/301 289/325/301 290/326/301
f 240/283/302 231/271/302 283/271/302 538/284/302 282/283/302
f 276/324/303 275/323/303 290/326/303 291/327/303
f 50/68/304 41/54/304 339/54/304 347/68/304
f 277/317/305 276/324/305 291/327/305 292/328/305
f 270/318/306 269/304/306 284/303/306 285/329/306
f 95/113/307 86/107/307 375/107/307 382/113/307
f 185/330/308 277/317/308 292/328/308
f 271/319/309 270/318/309 285/329/309 286/331/309
f 23/35/310 14/22/310 318/22/310 325/35/310
f 272/320/311 271/319/311 286/331/311 287/332/311
f 122/145/312 113/132/312 396/132/312 403/145/312
f 273/321/313 272/320/313 287/332/313 288/333/313
f 466/236/314 473/242/314 279/242/314 530/295/314 280/236/314
f 274/322/315 273/321/315 288/333/315 289/325/315
f 149/179/316 140/165/316 417/165/316 424/179/316
f 195/223/317 186/217/317 452/217/317 459/223/317
f 287/332/318 286/331/318 3/1/318 297/5/318
f 77/93/319 68/87/319 361/87/319 368/93/319
f 288/333/320 287/332/320 297/5/320 4/7/320
f 249/293/321 240/283/321 494/283/321 501/293/321
f 289/325/322 288/333/322 4/7/322 298/9/322
f 176/204/323 167/198/323 438/198/323 445/204/323
f 290/326/324 289/325/324 298/9/324 299/11/324
f 104/126/325 95/113/325 382/113/325 389/126/325
f 291/327/326 290/326/326 299/11/326 300/13/326
f 32/49/327 23/35/327 325/35/327 332/49/327
f 292/328/328 291/327/328 300/13/328 301/15/328
f 285/329/329 284/303/329 1/17/329 2/2/329
f 473/263/330 480/264/330 278/264/330 529/286/330 279/263/330
f 185/334/331 292/328/331 301/15/331
f 286/331/332 285/329/332 2/2/332 3/1/332
f 524/335/333 523/336/333 305/337/333 306/338/333
f 302/339/334 524/335/334 306/338/334 307/340/334
f 525/341/335 302/339/335 307/340/335 308/342/335
f 303/343/336 525/341/336 308/342/336 309/344/336
f 526/345/337 303/343/337 309/344/337 310/346/337
f 304/17/338 526/345/338 310/346/338 311/18/338
f 523/336/339 340/347/339 305/337/339
f 305/337/340 340/348/340 312/349/340
f 306/338/341 305/337/341 312/349/341 313/350/341
f 307/340/342 306/338/342 313/350/342 314/351/342
f 308/342/343 307/340/343 314/351/343 315/352/343
f 309/344/344 308/342/344 315/352/344 316/353/344
f 310/346/345 309/344/345 316/353/345 317/354/345
f 311/18/346 310/346/346 317/354/346 318/22/346
f 316/353/347 315/352/347 322/355/347 323/356/347
f 317/354/348 316/353/348 323/356/348 324/357/348
f 318/22/349 317/354/349 324/357/349 325/35/349
f 312/349/350 340/358/350 319/359/350
f 313/350/351 312/349/351 319/359/351 320/360/351
f 314/351/352 313/350/352 320/360/352 321/361/352
f 315/352/353 314/351/353 321/361/353 322/355/353
f 319/359/354 340/362/354 326/363/354
f 320/360/355 319/359/355 326/363/355 327/364/355
f 321/361/356 320/360/356 327/364/356 328/365/356
f 322/355/357 321/361/357 328/365/357 329/366/357
f 323/356/358 322/355/358 329/366/358 330/367/358
f 324/357/359 323/356/359 330/367/359 331/368/359
f 325/35/360 324/357/360 331/368/360 332/49/360
f 330/367/361 329/366/361 336/369/361 337/370/361
f 331/368/362 330/367/362 337/370/362 338/371/362
f 332/49/363 331/368/363 338/371/363 339/54/363
f 326/363/364 340/372/364 333/373/364
f 327/364/365 326/363/365 333/373/365 334/374/365
f 328/365/366 327/364/366 334/374/366 335/375/366
f 329/366/367 328/365/367 335/375/367 336/369/367
f 334/374/368 333/373/368 341/376/368 342/377/368
f 335/375/369 334/374/369 342/377/369 343/378/369
f 336/369/370 335/375/370 343/378/370 344/379/370
f 337/370/371 336/369/371 344/379/371 345/380/371
f 338/371/372 337/370/372 345/380/372 346/381/372
f 339/54/373 338/371/373 346/381/373 347/68/373
f 333/373/374 340/382/374 341/376/374
f 346/381/375 345/380/375 352/383/375 353/384/375
f 347/68/376 346/381/376 353/384/376 354/74/376
f 341/376/377 340/385/377 348/386/377
f 342/377/378 341/376/378 348/386/378 349/387/378
f 343/378/379 342/377/379 349/387/379 350/388/379
f 344/379/380 343/378/380 350/388/380 351/389/380
f 345/380/381 344/379/381 351/389/381 352/383/381
f 349/387/382 348/386/382 355/390/382 356/391/382
f 350/388/383 349/387/383 356/391/383 357/392/383
f 351/389/384 350/388/384 357/392/384 358/393/384
f 352/383/385 351/389/385 358/393/385 359/394/385
f 353/384/386 352/383/386 359/394/386 360/395/386
f 354/74/387 353/384/387 360/395/387 361/87/387
f 348/386/388 340/396/388 355/390/388
f 360/395/389 359/394/389 366/397/389 367/398/389
f 361/87/390 360/395/390 367/398/390 368/93/390
f 355/390/391 340/399/391 362/400/391
f 356/391/392 355/390/392 362/400/392 363/401/392
f 357/392/393 356/391/393 363/401/393 364/402/393
f 358/393/394 357/392/394 364/402/394 365/403/394
f 359/394/395 358/393/395 365/403/395 366/397/395
f 364/402/396 363/401/396 370/404/396 371/405/396
f 365/403/397 364/402/397 371/405/397 372/406/397
f 366/397/398 365/403/398 372/406/398 373/407/398
f 367/398/399 366/397/399 373/407/399 374/408/399
f 368/93/400 367/398/400 374/408/400 375/107/400
f 362/400/401 340/409/401 369/410/401
f 363/401/402 362/400/402 369/410/402 370/404/402
f 375/107/403 374/408/403 381/411/403 382/113/403
f 369/410/404 340/412/404 376/413/404
f 370/404/405 369/410/405 376/413/405 377/414/405
f 371/405/406 370/404/406 377/414/406 378/415/406
f 372/406/407 371/405/407 378/415/407 379/416/407
f 373/407/408 372/406/408 379/416/408 380/417/408
f 374/408/409 373/407/409 380/417/409 381/411/409
f 379/416/410 378/415/410 385/418/410 386/419/410
f 380/417/411 379/416/411 386/419/411 387/420/411
f 381/411/412 380/417/412 387/420/412 388/421/412
f 382/113/413 381/411/413 388/421/413 389/126/413
f 376/413/414 340/422/414 383/423/414
f 377/414/415 376/413/415 383/423/415 384/424/415
f 378/415/416 377/414/416 384/424/416 385/418/416
f 383/423/417 340/425/417 390/426/417
f 384/424/418 383/423/418 390/426/418 391/427/418
f 385/418/419 384/424/419 391/427/419 392/428/419
f 386/419/420 385/418/420 392/428/420 393/429/420
f 387/420/421 386/419/421 393/429/421 394/430/421
f 388/421/422 387/420/422 394/430/422 395/431/422
f 389/126/423 388/421/423 395/431/423 396/132/423
f 393/429/424 392/428/424 399/432/424 400/433/424
f 394/430/425 393/429/425 400/433/425 401/434/425
f 395/431/426 394/430/426 401/434/426 402/435/426
f 396/132/427 395/431/427 402/435/427 403/145/427
f 390/426/428 340/436/428 397/437/428
f 391/427/429 390/426/429 397/437/429 398/438/429
f 392/428/430 391/427/430 398/438/430 399/432/430
f 397/437/431 340/439/431 404/440/431
f 398/438/432 397/437/432 404/440/432 405/441/432
f 399/432/433 398/438/433 405/441/433 406/442/433
f 400/433/434 399/432/434 406/442/434 407/443/434
f 401/434/435 400/433/435 407/443/435 408/444/435
f 402/435/436 401/434/436 408/444/436 409/445/436
f 403/145/437 402/435/437 409/445/437 410/150/437
f 408/444/438 407/443/438 414/446/438 415/447/438
f 409/445/439 408/444/439 415/447/439 416/448/439
f 410/150/440 409/445/440 416/448/440 417/165/440
f 404/440/441 340/449/441 411/450/441
f 405/441/442 404/440/442 411/450/442 412/451/442
f 406/442/443 405/441/443 412/451/443 413/452/443
f 407/443/444 406/442/444 413/452/444 414/446/444
f 411/450/445 340/453/445 418/454/445
f 412/451/446 411/450/446 418/454/446 419/455/446
f 413/452/447 412/451/447 419/455/447 420/456/447
f 414/446/448 413/452/448 420/456/448 421/457/448
f 415/447/449 414/446/449 421/457/449 422/458/449
f 416/448/450 415/447/450 422/458/450 423/459/450
f 417/165/451 416/448/451 423/459/451 424/179/451
f 422/458/452 421/457/452 428/460/452 429/461/452
f 423/459/453 422/458/453 429/461/453 430/462/453
f 424/179/454 423/459/454 430/462/454 431/184/454
f 418/454/455 340/463/455 425/464/455
f 419/455/456 418/454/456 425/464/456 426/465/456
f 420/456/457 419/455/457 426/465/457 427/466/457
f 421/457/458 420/456/458 427/466/458 428/460/458
f 426/465/459 425/464/459 432/467/459 433/468/459
f 427/466/460 426/465/460 433/468/460 434/469/460
f 428/460/461 427/466/461 434/469/461 435/470/461
f 429/461/462 428/460/462 435/470/462 436/471/462
f 430/462/463 429/461/463 436/471/463 437/472/463
f 431/184/464 430/462/464 437/472/464 438/198/464
f 425/464/465 340/473/465 432/467/465
f 437/472/466 436/471/466 443/474/466 444/475/466
f 438/198/467 437/472/467 444/475/467 445/204/467
f 432/467/468 340/476/468 439/477/468
f 433/468/469 432/467/469 439/477/469 440/478/469
f 434/469/470 433/468/470 440/478/470 441/479/470
f 435/470/471 434/469/471 441/479/471 442/480/471
f 436/471/472 435/470/472 442/480/472 443/474/472
f 441/479/473 440/478/473 447/481/473 448/482/473
f 442/480/474 441/479/474 448/482/474 449/483/474
f 443/474/475 442/480/475 449/483/475 450/484/475
f 444/475/476 443/474/476 450/484/476 451/485/476
f 445/204/477 444/475/477 451/485/477 452/217/477
f 439/477/478 340/486/478 446/487/478
f 440/478/479 439/477/479 446/487/479 447/481/479
f 452/217/480 451/485/480 458/488/480 459/223/480
f 446/487/481 340/489/481 453/490/481
f 447/481/482 446/487/482 453/490/482 454/491/482
f 448/482/483 447/481/483 454/491/483 455/492/483
f 449/483/484 448/482/484 455/492/484 456/493/484
f 450/484/485 449/483/485 456/493/485 457/494/485
f 451/485/486 450/484/486 457/494/486 458/488/486
f 455/492/487 454/491/487 461/495/487 462/496/487
f 456/493/488 455/492/488 462/496/488 463/497/488
f 457/494/489 456/493/489 463/497/489 464/498/489
f 458/488/490 457/494/490 464/498/490 465/499/490
f 459/223/491 458/488/491 465/499/491 466/236/491
f 453/490/492 340/500/492 460/501/492
f 454/491/493 453/490/493 460/501/493 461/495/493
f 466/236/494 465/499/494 472/502/494 473/242/494
f 460/501/495 340/503/495 467/504/495
f 461/495/496 460/501/496 467/504/496 468/505/496
f 462/496/497 461/495/497 468/505/497 469/506/497
f 463/497/498 462/496/498 469/506/498 470/507/498
f 464/498/499 463/497/499 470/507/499 471/508/499
f 465/499/500 464/498/500 471/508/500 472/502/500
f 470/509/501 469/510/501 476/511/501 477/512/501
f 471/513/502 470/509/502 477/512/502 478/514/502
f 472/515/503 471/513/503 478/514/503 479/516/503
f 473/263/504 472/515/504 479/516/504 480/264/504
f 467/517/505 340/518/505 474/519/505
f 468/520/506 467/517/506 474/519/506 475/521/506
f 469/510/507 468/520/507 475/521/507 476/511/507
f 474/519/508 340/522/508 481/523/508
f 475/521/509 474/519/509 481/523/509 482/524/509
f 476/511/510 475/521/510 482/524/510 483/525/510
f 477/512/511 476/511/511 483/525/511 484/526/511
f 478/514/512 477/512/512 484/526/512 485/527/512
f 479/516/513 478/514/513 485/527/513 486/528/513
f 480/264/514 479/516/514 486/528/514 487/271/514
f 484/526/515 483/525/515 490/529/515 491/530/515
f 485/527/516 484/526/516 491/530/516 492/531/516
f 486/528/517 485/527/517 492/531/517 493/532/517
f 487/271/518 486/528/518 493/532/518 494/283/518
f 481/523/519 340/533/519 488/534/519
f 482/524/520 481/523/520 488/534/520 489/535/520
f 483/525/521 482/524/521 489/535/521 490/529/521
f 488/534/522 340/536/522 495/537/522
f 489/535/523 488/534/523 495/537/523 496/538/523
f 490/529/524 489/535/524 496/538/524 497/539/524
f 491/530/525 490/529/525 497/539/525 498/540/525
f 492/531/526 491/530/526 498/540/526 499/541/526
f 493/532/527 492/531/527 499/541/527 500/542/527
f 494/283/528 493/532/528 500/542/528 501/293/528
f 499/541/529 498/540/529 505/543/529 506/544/529
f 500/542/530 499/541/530 506/544/530 507/545/530
f 501/293/531 500/542/531 507/545/531 508/311/531
f 495/537/532 340/546/532 502/547/532
f 496/538/533 495/537/533 502/547/533 503/548/533
f 497/539/534 496/538/534 503/548/534 504/549/534
f 498/540/535 497/539/535 504/549/535 505/543/535
f 503/548/536 502/547/536 509/550/536 510/551/536
f 504/549/537 503/548/537 510/551/537 511/552/537
f 505/543/538 504/549/538 511/552/538 512/553/538
f 506/544/539 505/543/539 512/553/539 513/554/539
f 507/545/540 506/544/540 513/554/540 514/555/540
f 508/311/541 507/545/541 514/555/541 515/304/541
f 502/547/542 340/556/542 509/550/542
f 514/555/543 513/554/543 520/557/543 521/558/543
f 515/304/544 514/555/544 521/558/544 522/303/544
f 509/550/545 340/559/545 516/560/545
f 510/551/546 509/550/546 516/560/546 517/561/546
f 511/552/547 510/551/547 517/561/547 518/562/547
f 512/553/548 511/552/548 518/562/548 519/563/548
f 513/554/549 512/553/549 519/563/549 520/557/549
f 517/561/550 516/560/550 523/336/550 524/335/550
f 518/562/551 517/561/551 524/335/551 302/339/551
f 519/563/552 518/562/552 302/339/552 525/341/552
f 520/557/553 519/563/553 525/341/553 303/343/553
f 521/558/554 520/557/554 303/343/554 526/345/554
f 522/303/555 521/558/555 526/345/555 304/17/555
f 516/560/556 340/564/556 523/336/556
f 537/271/259 543/280/259 528/280/259 268/271/259
f 283/271/557 539/280/557 543/280/557 537/271/557
f 539/280/557 293/264/557 536/264/557 543/280/557
f 534/283/257 544/284/257 527/284/257 267/283/257
f 282/283/558 538/284/558 544/284/558 534/283/558
f 538/284/558 283/271/558 537/271/558 544/284/558
f 535/242/254 545/295/254 530/295/254 279/242/254
f 294/242/559 541/295/559 545/295/559 535/242/559
f 541/295/559 295/236/559 533/236/559 545/295/559
f 536/264/251 546/286/251 529/286/251 278/264/251
f 293/264/560 540/286/560 546/286/560 536/264/560
f 540/286/560 294/263/560 535/263/560 546/286/560
f 533/236/249 547/279/249 531/279/249 280/236/249
f 295/236/561 542/279/561 547/279/561 533/236/561
f 542/279/561 296/223/561 532/223/561 547/279/561
